<svg xmlns="http://www.w3.org/2000/svg" xmlns:v="https://vecta.io/nano" xmlns:xlink="http://www.w3.org/1999/xlink" viewBox="0 0 1920 384"><style>.Av{enable-background:new}.Aw{opacity:.85}.Ax{opacity:.5}.Ay{fill:#fff}.Az{fill:#f89f6e}.BA{opacity:.1}.BB{stroke-miterlimit:10}.BC{fill:#f8dfa4}.BD{opacity:.95}.BE{opacity:.3}.BF{opacity:.75}.BG{fill:#575f80}.BH{fill:#474f76}.BI{fill:#2747e6}.BJ{fill:#0089b1}.BK{fill:#ce585e}.BL{fill:#7d96ff}.BM{fill:#11a2b5}.BN{fill:#a9ddf0}.BO{stroke:#13a0cd}.BP{fill:#f46318}.BQ{fill:#a5b2f4}.BR{fill:#e4b1b0}.BS{fill:#68b7c8}.BT{stroke:#83c5d5}.BU{opacity:.38}.BV{fill:#2d355c}.BW{fill:#a0aef3}.BX{fill:#abb7f4}.BY{fill:#7789ef}.BZ{fill:#4cc1a6}.Ba{fill:#2eab90}.Bb{stroke:#9ee8be}.Bc{fill:#774699}.Bd{fill:#11a4b7}.Be{stroke-width:.71}.Bf{fill:#13a0cd}.Bg{stroke-width:.52}.Bh{stroke-width:.6}.Bi{fill:#e6580e}.Bj{fill:#3a436b}</style><defs><path id="A" d="M-1628-104.2h1440v7235h-1440z"/><path id="B" d="M736.7 246l1.3-1.7-.8 1.9 2.1.3-2.1.2.8 1.9-1.3-1.6-1.3 1.6.9-1.9-2.1-.2 2.1-.3-.9-1.9z"/><path id="C" d="M757.5 195.4c-44.9 6.5-87 16.9-132.2 27.4-2 .5-3.6-1.2-3.6-3.8L623 87.7c0-2.6 1.6-4.3 3.6-3.9 44.1 9.4 85.8 18.9 130 25 2 .3 3.7 1.8 3.8 3.3l.9 79.9c0 1.6-1.7 3.1-3.8 3.4h0z"/><path id="D" d="M634.1 91.8c0 1.3.9 2.6 1.9 2.8s1.8-.7 1.8-2-.9-2.6-1.9-2.8-1.8.7-1.8 2z"/><path id="E" d="M1171.3 46l12.9 7.9-6 12.9-12.6-7.9 5.7-12.9m-.3-1l-6.3 14.1 13.7 8.6 6.6-14.1-14-8.6h0 0z"/><path id="F" d="M421.9 181.9c3.5.7 7 5.9 12.8 8 5.8 2 10.7 3.5 15.7 3.1 5-.3 9.5-3.1 9.6-1.6s-8 16.9-20 20c-8.8 2.2-26.5 1.5-34.7-9.5-8.2-10.9 2.5-22.8 16.6-20h0z"/><path id="G" d="M430.4 194.4l-20.1 10.1s-4.2-1.7-3.3-5.7l18.2-11.4 5.2 7h0z"/><path id="H" d="M347.4 276.1c-6.7-.5-22.9 6.2-23.3 9.2s18.2-.6 25.7-.8l-2.4-8.4h0z"/><path id="I" d="M355.3 262.6c-6.3-2.1-23.9.7-25 3.5s17.9 3.6 25.2 5.2l-.2-8.7z"/><path id="J" d="M415.7 271.7c.3-.9-3.1-2.7-7.5-4.1s-8.3-1.8-8.6-.9 3.1 2.7 7.5 4.1 8.3 1.8 8.6.9z"/><path id="K" d="M393.8 242c-.1-.5-1.5-.7-3.2-.5s-3 .8-3 1.2c.1.5 1.5.7 3.2.5s3-.7 3-1.2z"/><path id="L" d="M383 257.1c-.1-.5-1.5-.7-3.2-.5s-3 .8-3 1.2c.1.5 1.5.7 3.2.5s3.1-.7 3-1.2z"/><path id="M" d="M378.2 285.7c.5 0 .8-1.6.7-3.5s-.7-3.4-1.2-3.4-.8 1.6-.7 3.5c.2 1.9.7 3.4 1.2 3.4z"/><path id="N" d="M374.5 229.3c2.7 2.3 5.5 3.6 6.1 2.9s-1-3.1-3.7-5.3c-2.7-2.3-5.4-3.6-6.1-2.9s1 3 3.7 5.3z"/></defs><clipPath id="O"><use xlink:href="#A"/></clipPath><g clip-path="url(#O)"><defs><path id="P" d="M-1867.6 22.4h1920v384h-1920z"/></defs><clipPath id="Q"><use xlink:href="#P"/></clipPath><g class="Ay" clip-path="url(#Q)"><path d="M-1867.6 23.3h1920v384h-1920z"/></g><defs><path id="R" d="M-1867.6 22.4h1920v384h-1920z"/></defs><clipPath id="S"><use xlink:href="#R"/></clipPath><g clip-path="url(#S)"><path d="M-1867.6 23.3h1920v384h-1920z" class="Ay"/><g class="BE BW"><path d="M-955.2,122.8c335.6-6.4,668.8-47.1,776.4-66.9C-39.5,30.2-32.8,326,35.3,326h-990.5V122.8z"/></g><path d="M-1848.3 326H33-1848.3h0z" class="BL"/></g></g><defs><path id="T" d="M-1628-103.7h1440v7235h-1440z"/></defs><clipPath id="U"><use xlink:href="#T"/></clipPath><g clip-path="url(#U)"><defs><path id="V" d="M-749 344.3h306v207h-306z"/></defs><clipPath id="W"><use xlink:href="#V"/></clipPath><g clip-path="url(#W)"><path d="M-114 355.3h260c5.5 0 10 4.5 10 10v161c0 5.5-4.5 10-10 10h-260c-5.5 0-10-4.5-10-10v-161c0-5.5 4.4-10 10-10z"/></g></g><defs><path id="X" d="M0 0h1920v384H0z"/></defs><clipPath id="Y"><use xlink:href="#X"/></clipPath><g clip-path="url(#Y)"><path d="M0 .9h1920v384H0z" class="Ay"/><g class="BE BW"><path d="M999.7 100.4c-335.6-6.4-668.8-47.1-776.5-67C84 7.8 77.3 303.6 9.2 303.6h990.5V100.4h0z"/></g><g class="BE BW"><path d="M912.5 100.4c335.6-6.4 668.8-47.1 776.4-66.9 139.2-25.6 145.9 270.2 214.1 270.2H912.5V100.4h0z"/></g><g class="Ay"><path d="M1581.7 23.8h65.2l28.8 69.2h-65.2zm-6.6 0l28.8 69.2h-65.2l-28.8-69.2zm37.7 74.6h65.1l41.5 99.7h-65.2zm34.8 99.7h-65.2l-41.5-99.7h65.2zm74.2 5.8l41.5 99.7h-65.2l-41.4-99.7zm-30.3 99.7h-65.2l-41.5-99.7h65.2z"/></g><path fill="#b2bdf5" d="M1751.7 209.7h68.1v10.8h-68.1z"/><g fill="#5972eb"><path d="M1752.8 303h-.9l7.2-85.3 1 .1zm65.8 0l-7.2-85.2.9-.1 7.2 85.3z"/><path d="M1754.3 273.5h62.2v.9h-62.2zm2.2-20.8h58.3v.9h-58.3z"/></g><path d="M1827.6 179.8l-1.4-5.8.6-.2 1.4 5.8-.6.2h0z" class="BI"/><path d="M1757.5 142.9s9.3-6.8 5.1-10.5c-9.8-8.2-35.2 19.8-34.6 22.7.7 2.9 31.5 8.5 36.8-5.6 3.4-8.6-7.3-6.6-7.3-6.6h0z" class="BX"/><path d="M1757.5 142.9s-7.8.6-29.5 12.3c.7 2.9 31.5 8.5 36.8-5.6 3.4-8.7-7.3-6.7-7.3-6.7z" class="BY"/><path d="M1738.1 150.3l-.2-.5c23.2-11.3 37.9-11.4 43.7-.5l-.5.3c-5.6-10.7-20.1-10.4-43 .7z" class="BI"/><path fill="#687eed" d="M1793.2 147.9h-15.9s-10.9 45.3-9.9 51.8 5 9.9 5 9.9h25.9s4-3.5 5-9.9c.8-6.5-10.1-51.8-10.1-51.8h0z"/><g class="BI"><path d="M1776.8 149.8h17v.6h-17zm-9.5 49h35.8v.6h-35.8z"/></g><path fill="#687eed" d="M1815.3 152.1s-9.2-6.9-11.5-1.9c-5.1 11.8 22.1 32.9 24.8 31.4s6.1-37.4-8.9-38.4c-9.4-.8-4.4 8.9-4.4 8.9h0z"/><g class="BY"><path d="M1815.3 152.1s-9.2-6.9-11.5-1.9c-5.1 11.8 22.1 32.9 24.8 31.4-.8-6.9-8.6-26.7-13.3-29.5zm-35.6-30.2s.4 9.2-6.9 8.3c-7.4-.9-1.5-27.3-1.5-27.3s23.8 13.8 17.4 19.9c-4.6 4.9-9-.9-9-.9z"/></g><g class="BX"><path d="M1779.7 121.9l-8.4-19s23.8 13.8 17.4 19.9c-4.6 4.9-9-.9-9-.9zm16 8.1c6.5-8.5 17.8-13.5 31-17.9 0 0-6.2 20.6-14.2 23.5-7.9 2.3-16.8-5.6-16.8-5.6zm-27.9-7.9s-11.6-13-20-19.2c0 0 1.6 15.3 6.8 19.2 5 3.5 13.2 0 13.2 0z"/></g><g class="BI"><path d="M1792 135.1l-.5-.3c7.1-11.6 21.1-17.9 35.2-23l.2.6c-14 5-27.9 11.2-34.9 22.7zm-4.5 12.9l-.6-.1c.5-3.8 1.5-7.3 3.1-10.5l.5.3c-1.5 3.1-2.5 6.6-3 10.3h0zm-2.5-.1c-1.4-17.4-7.9-32.9-13.1-42.9l.5-.3c5.2 10 11.8 25.6 13.2 43.1l-.6.1h0zm39.7 21.4c-5.2-15.1-14.7-25.5-24-26.5-4.5-.5-8.3 1.4-10.8 5.3l-.5-.3c2.6-4.1 6.6-6.1 11.3-5.6 9.5 1.1 19.1 11.6 24.4 26.9l-.4.2h0z"/></g><path d="M1772 158.4s1.9-7.6-3-6.5c-11.4 2.9-5.7 31.5-3.2 32.6 2.6 1.1 24.9-13.4 17.2-24.9-4.7-7.3-11-1.2-11-1.2h0z" class="BX"/><path d="M1772 158.4s-5.1 16.1-6.2 26.1c2.6 1.1 24.9-13.4 17.2-24.9-4.7-7.3-11-1.2-11-1.2h0z" class="BY"/><g class="BI"><path d="M1782.8 148c-4.8-11.6-11.7-22.3-20.5-31.6l.4-.4c8.9 9.4 15.8 20.1 20.6 31.8l-.5.2zm-23.3-34.5c-3.6-3.6-7.7-7.1-11.9-10.3l.3-.5c4.3 3.3 8.3 6.7 12 10.3l-.4.5h0z"/><path d="M1766.5 181.4l-.6-.1c.3-1.5 6.5-35.8 15.3-38 1.5-.2 2.7.1 3.6.9 1.7 1.3 1.9 3.7 1.9 3.8l-.6.1s-.2-2.2-1.7-3.4c-.8-.6-1.8-.9-3.1-.7-8.4 2-14.7 37-14.8 37.4z"/></g><g class="Ay"><path d="M326.2 23.5H261l-28.8 69.2h65.2zm6.7 0l-28.8 69.2h65.1L398 23.5zm-37.7 74.7H230l-41.5 99.7h65.2zm-34.9 99.7h65.2L367 98.2h-65.2zm-74.2 5.8l-41.5 99.7h65.2l41.5-99.7zm30.3 99.7h65.2l41.5-99.7h-65.2zM511.7 23.5h-65.2l-28.8 69.2h65.2zm6.6 0l-28.8 69.2h65.2l28.8-69.2zm-37.7 74.7h-65.1L374 197.9h65.2zm-34.8 99.7H511l41.5-99.7h-65.2zm-74.2 5.8l-41.5 99.7h65.2l41.5-99.7zm30.3 99.7h65.2l41.5-99.7h-65.2zM112 217.8h18V253h-18z"/></g><path d="M112 217.8h18V253h-18z" class="Av BQ" opacity=".14"/><path d="M135.5 209.5h18V253h-18z" class="Ay"/><path d="M135.5 209.5h18V253h-18z" class="Av BQ" opacity=".07"/><path d="M124 226.6h18v26.5h-18z" class="Ay"/><path d="M124 226.6h18v26.5h-18z" class="Av Ax BQ"/><g class="BI"><path d="M120.6 215.6h.8v2.2h-.8zm23.5-8.3h.8v2.2h-.8zm-11.5 17.1h.8v2.2h-.8z"/></g><g class="BQ"><path d="M104.7 253h58.1v2.5h-58.1zm85.5-1.9V246a4.48 4.48 0 0 1 4.5-4.5h-17.6a4.48 4.48 0 0 0-4.5 4.5v5.1a4.48 4.48 0 0 0 4.5 4.5h17.6c-2.4-.1-4.5-2.1-4.5-4.5z"/></g><path fill="#6f82ee" d="M194.7 241.4a4.48 4.48 0 0 0-4.5 4.5v5.1a4.48 4.48 0 0 0 4.5 4.5h33.4v-14.1h-33.4 0z"/><path d="M195.1 242.7c-2 0-3.6 1.6-3.6 3.6v4.2c0 2 1.6 3.6 3.6 3.6h33v-11.5l-33 .1h0z" class="Ay"/><g fill="#6f82ee"><path d="M199.1 244.1h27.4v.8h-27.4zm4.7 4.7h24.3v.8h-24.3zm-7.3 0h3.9v.8h-3.9zm1.9 2.8h20.3v.8h-20.3z"/></g><g fill="#4c66ea"><path d="M206.9 304h-3.4l-12.7-44.5h6.6l9.5 44.5zm-2.8-.8h1.9l-9.3-42.9h-5l12.4 42.9h0zm-83.1.8h-3.4l9.5-44.5h6.6L121 304zm-2.5-.8h1.9l12.4-42.9h-5l-9.3 42.9h0zm45.4.8h-3.4l-1.6-44.5h6.5v.4l-1.5 44.1zm-2.6-.8h1.9l1.5-42.9h-4.9l1.5 42.9h0z"/></g><path fill="#adb9f5" d="M90.6 255.5h143.3v6.4H90.6z"/><path d="M19.4 303.6h1881.3H19.4h0 0z" class="BL"/><circle cx="1612" cy="255.4" r="1.3" class="Ay"/><linearGradient id="Z" x1="521.843" x2="544.863" y1="42.189" y2="101.499" gradientUnits="userSpaceOnUse"><stop offset="0" stop-color="#0b208d"/><stop offset=".17" stop-color="#0a1e86"/><stop offset=".39" stop-color="#081975"/><stop offset=".66" stop-color="#051258"/><stop offset=".73" stop-color="#05104f"/></linearGradient><path fill="url(#Z)" d="M461.6 130.6c-2.4-7.5-.8-15.9 1.7-23.6 3.8-11.7 9.8-22.8 17.6-32.4a119.11 119.11 0 0 1 13.9-14.5c19.5-17.2 44.1-28.8 69.4-30.7 58.6-4.5 76 34.7 40.8 82.3-12.1 16.4-28.5 29.5-47 37.4-24.4 10.6-52.7 11.9-76.1 1.1-8.9-4-17.3-10.3-20.3-19.6h0z"/><ellipse cx="401.1" cy="313.2" class="BL" rx="104.3" ry="15.1"/><linearGradient id="a" x1="1257.364" x2="1241.974" y1="13.349" y2="102.539" gradientUnits="userSpaceOnUse"><stop offset="0" stop-color="#0b208d"/><stop offset=".21" stop-color="#0a1f89"/><stop offset=".41" stop-color="#091c7e"/><stop offset=".59" stop-color="#07176c"/><stop offset=".77" stop-color="#051052"/><stop offset=".8" stop-color="#05104f"/></linearGradient><path fill="url(#a)" d="M1062.9 130.5C872.6 4 1451-39.5 1460.9 111.3c1.7 12.9-8.3 21.8-20.5 26.9-88.8 37-287.5 28.9-377.5-7.7h0z"/><linearGradient id="b" x1="784.283" x2="797.423" y1="404.27" y2="310.451" gradientUnits="userSpaceOnUse"><stop offset="0" stop-color="#0b208d"/><stop offset=".21" stop-color="#0a1f89"/><stop offset=".41" stop-color="#091c7e"/><stop offset=".59" stop-color="#07176c"/><stop offset=".77" stop-color="#051052"/><stop offset=".8" stop-color="#05104f"/></linearGradient><path fill="url(#b)" d="M957.5 317.1c-7.9-17.2-34.3-28.9-61.4-35.7-84.8-21.2-183.9-6.2-262.6 22.6 34 45 114.3 73.5 195.5 76.6 32.2 1.2 66.2-1.5 93-12.5s44.1-32 35.5-51h0z"/><radialGradient id="c" cx="1009.824" cy="-55.391" r="642.163" gradientTransform="matrix(1 0 0 -0.29 0 174.7699)" gradientUnits="userSpaceOnUse"><stop offset="0" stop-color="#0b208d"/><stop offset=".31" stop-color="#0a1e89"/><stop offset=".59" stop-color="#091b7e"/><stop offset=".85" stop-color="#06166c"/><stop offset=".91" stop-color="#061567"/><stop offset="1" stop-color="#051152"/><stop offset="1" stop-color="#061567"/></radialGradient><path fill="url(#c)" d="M697 322.6c-16.4 5.4-91 23-173.6-11.5-68.4-28.6-127.2-77.9-129.6-98.4-2.4-21 4.3-10.7 11.9-27.6 18.2-40.4 84.2-82.8 170.4-122.3 181.4-83.2 341.1-60.3 430-39.9 92.6 21.3 168.4 66 259 90.5 57.6 15.5 90.9 5.3 153.1 3.2 28.3-1 260.8-56.8 197.3 109.5-13.9 36.4-52.7 66.9-102.4 90.5-70.7 33.5-152.8 50.8-234.1 58-88.2 7.8-186.4 2-270.1-17.7-29-6.9-56.1-16.8-84.6-24.5-59.2-16-149.1-29.8-211.7-14.4-5.5 1.4-10.6 2.9-15.6 4.6h0z"/><path d="M560.9 80.7l14.5 6.8h.2 0l12.3 2.2-4.3-19.4.4-.9c.2-.6.1-1.2-.4-1.4l-.6-.3-1.6-7-12.1-1.1h0 0c-.4 0-.8.3-1 .8l-7.8 18.8c-.2.6 0 1.3.4 1.5h0z" class="BZ"/><path stroke-width=".47" d="M581.9 60.9l14.6 7.9c.5.2.6.9.4 1.5L589.1 89c-.3.7-.9 1-1.5.8l-15-7c-.5-.2-.7-.9-.4-1.5l8.2-19.6c.3-.8 1-1.1 1.5-.8h0z" class="BB Ba Bb"/><path d="M550.3 98.8l12.1 5.6h.2 0l10.1 2.4-4.7-13.3.2-.6c.2-.4 0-.8-.4-1l-.5-.2-1.7-4.8-9.8-1.6h0 0c-.3 0-.6.2-.8.5l-5.2 12.1c0 .3.1.7.5.9h0z" class="Bc"/><path fill="#aa83c6" d="M572.7 106.7c-.1 0-.2 0-.3-.1l-12.5-5.8c-.3-.1-.4-.4-.3-.7l5.4-12.6a.55.55 0 0 1 .5-.3c.1 0 .2 0 .3.1l12.2 6.4c.3.1.4.4.3.7l-5.2 12.1c.1 0-.1.2-.4.2h0z"/><path d="M565.6 87.4h0c.1 0 .1 0 .2.1l12.2 6.4c.2.1.2.3.2.4l-5.2 12.1c0 .1-.2.2-.3.2h-.2l-12.5-5.8c-.2-.1-.3-.3-.2-.4l5.4-12.6c.2-.3.3-.4.4-.4m0-.5c-.3 0-.6.2-.8.5l-5.4 12.6c-.2.4 0 .8.4 1l12.5 5.8c.1.1.2.1.4.1.3 0 .6-.2.8-.5l5.2-12.1c.2-.4 0-.8-.4-1L566 87c-.1-.1-.2-.1-.4-.1h0 0z" class="Bc"/><g class="Az"><path d="M529.7 56.7l19.6 9.9c.6.3.9 1 .6 1.6l-8.2 19.2c-.3.7-1.1.9-1.8.6L520 78.8c-.6-.3-.9-1-.7-1.6l8.5-19.9c.3-.7 1.2-1 1.9-.6h0z"/><path d="M557.1 91.2l-16.9-3-11.1-31.7 16.6 1.7z"/></g><path d="M557.3 90.8c-.2 0-.3 0-.5-.1l-20.5-9.5c-.5-.2-.7-.8-.5-1.2l8.9-20.8c.2-.3.5-.6.9-.6a.9.9 0 0 1 .5.1l20.1 10.5a.88.88 0 0 1 .5 1.2l-8.5 19.8c-.2.4-.5.6-.9.6z" class="BC"/><path d="M545.6 59h0c.1 0 .2 0 .3.1L566 69.6c.3.1.4.4.3.7l-8.5 19.8a.55.55 0 0 1-.5.3c-.1 0-.2 0-.3-.1l-20.5-9.5c-.3-.1-.4-.4-.3-.7l8.9-20.8a.55.55 0 0 1 .5-.3m0-.8a1.3 1.3 0 0 0-1.2.8l-8.9 20.8c-.3.6 0 1.4.7 1.7l20.5 9.5c.2.1.4.1.6.1a1.3 1.3 0 0 0 1.2-.8l8.5-19.8c.3-.6 0-1.3-.6-1.7l-20.1-10.5c-.2 0-.5-.1-.7-.1h0 0z" class="Az"/><g class="BJ Av"><ellipse cx="1259" cy="104.7" class="Ax" rx="2.4" ry="2.3"/><ellipse cx="1256.7" cy="31.4" class="Ax" rx="2.4" ry="2.3"/><ellipse cx="1348.6" cy="68" class="BE" rx="2.4" ry="2.3"/><ellipse cx="499.6" cy="214.3" class="Ax" rx="2.4" ry="2.3"/><ellipse cx="684.1" cy="81.8" class="Ax" rx="2.4" ry="2.3"/><ellipse cx="593.9" cy="211.3" class="Ax" rx="2.4" ry="2.3"/><ellipse cx="1458.2" cy="194" class="Ax" rx="3.7" ry="3.6"/><ellipse cx="1510.9" cy="256.9" class="Ax" rx="3.7" ry="3.6"/><ellipse cx="1301.6" cy="315.6" class="Ax" rx="3.7" ry="3.6"/><ellipse cx="1522.1" cy="130.4" class="Ax" rx="3.7" ry="3.6"/><ellipse cx="1597.5" cy="154.6" class="Ax" rx="3.7" ry="3.6"/><ellipse cx="1380.3" cy="300" class="Ax" rx="3.7" ry="3.6"/><ellipse cx="1402.6" cy="256.8" class="Ax" rx="6.6" ry="6.4"/><ellipse cx="1333.2" cy="260.6" class="Ax" rx="3.7" ry="3.6"/><circle cx="717.5" cy="285.1" r="1" class="BD"/><circle cx="783.5" cy="252" r="1" class="BD"/><circle cx="559.3" cy="274.8" r="1" class="BD"/><circle cx="1502.3" cy="201.2" r="1" class="BD"/><circle cx="1430.8" cy="140.2" r="1" class="Aw"/><circle cx="666.1" cy="259.9" r="1" class="Aw"/><circle cx="794.2" cy="366.5" r="1" class="Aw"/><circle cx="747.7" cy="305.9" r="1" class="Aw"/><circle cx="724" cy="250.3" r="1" class="Aw"/><circle cx="811.9" cy="367.5" r="1" class="Aw"/><circle cx="1388.1" cy="237.9" r="1" class="Aw"/></g><circle cx="1415.1" cy="313.1" r="1" class="Ay"/><g fill="#e9636a"><circle cx="1426.3" cy="320.9" r="2"/><circle cx="887.6" cy="27.1" r="2"/></g><g class="BJ Av"><circle cx="1357.3" cy="75.2" r="1" class="Aw"/><ellipse cx="1505.8" cy="162.5" class="Aw" rx="2.5" ry="2.4"/><ellipse cx="1515.9" cy="210.7" class="Aw" rx="2.5" ry="2.4"/><ellipse cx="1584.4" cy="139.2" class="Aw" rx="2.5" ry="2.4"/><ellipse cx="1250.5" cy="254.7" class="Aw" rx="2.5" ry="2.4"/><circle cx="1215.6" cy="304.2" r="2.5" class="Ax"/><circle cx="1229.6" cy="350.2" r="2.5" class="Ax"/><circle cx="640.4" cy="59.2" r="1.6" class="BF"/><circle cx="1544.1" cy="243.7" r=".5" class="Aw"/><circle cx="1508.1" cy="237.5" r=".5" class="Aw"/><circle cx="1419.8" cy="285.3" r=".5" class="Aw"/><circle cx="1536.8" cy="123.2" r=".5" class="Aw"/><circle cx="1456.3" cy="130.4" r="1" class="BD"/><circle cx="1602.1" cy="183.1" r="1" class="BD"/><circle cx="1571.9" cy="187.5" r="1" class="BD"/><circle cx="1487.8" cy="267.2" r="1" class="BD"/><circle cx="1336.5" cy="305.5" r="1" class="BD"/><circle cx="1369.7" cy="278.9" r="1" class="BD"/><circle cx="1432.9" cy="230.2" r="1" class="Aw"/><ellipse cx="785.9" cy="94.5" class="BE" rx="2.4" ry="2.3"/><ellipse cx="864.1" cy="48.7" class="BE" rx="2.4" ry="2.3"/><ellipse cx="952.5" cy="87.3" class="BE" rx="2.4" ry="2.3"/><ellipse cx="952.5" cy="34" class="BE" rx="2.4" ry="2.3"/><ellipse cx="1164.1" cy="140.5" class="Aw" rx="2.5" ry="2.4"/><circle cx="1104.1" cy="342.2" r="2.5" class="Aw"/><ellipse cx="1262.7" cy="173.3" class="Aw" rx="2.5" ry="2.4"/><ellipse cx="1203.7" cy="129.9" class="BA" rx="6.1" ry="5.9"/><ellipse cx="1038.2" cy="332.1" class="BA" rx="6.1" ry="5.9"/><ellipse cx="1218" cy="79.9" class="BA" rx="6.1" ry="5.9"/><circle cx="1347.4" cy="82" r="1" class="Aw"/><circle cx="1328.3" cy="44.4" r="1" class="Aw"/><circle cx="1302.5" cy="78.9" r="1" class="Aw"/></g><circle cx="1306.4" cy="85.1" r=".5" class="BC"/><g class="BJ Av"><circle cx="1214.6" cy="259.6" r="1" class="Aw"/><circle cx="1261.5" cy="304.2" r="2.5" class="Aw"/><circle cx="1308.8" cy="345.2" r="2.5" class="Aw"/></g><circle cx="1352.7" cy="266.2" r="2.5" class="BC"/><g class="BJ Av"><circle cx="589.2" cy="170.8" r="1.6" class="BF"/><circle cx="522.7" cy="157.2" r="1" class="BD"/><path d="M512.5 203.8c.4 0 .8.3.8.8s-.3.8-.8.8-.8-.3-.8-.8.4-.8.8-.8z" class="Ax"/><circle cx="855.7" cy="294" r=".8" class="Ax"/><circle cx="928.1" cy="251.3" r=".8" class="Ax"/><circle cx="1166.6" cy="254.7" r=".8" class="Ax"/><circle cx="1243.1" cy="288.8" r=".8" class="Ax"/><circle cx="1191" cy="338" r=".8" class="Ax"/><circle cx="653.2" cy="265.6" r=".8" class="Ax"/><circle cx="777.3" cy="256.4" r=".8" class="Ax"/><circle cx="886.8" cy="243.6" r=".8" class="Ax"/><circle cx="591.6" cy="251.9" r="1.6" class="BF"/><circle cx="541" cy="107.8" r="1" class="Aw"/><ellipse cx="586.7" cy="107.3" class="Aw" rx="2.5" ry="2.4"/><circle cx="576.2" cy="41" r="1" class="Aw"/><circle cx="654.8" cy="234.5" r="1.6" class="BF"/><ellipse cx="838" cy="32.9" class="BF" rx="1.2" ry="1.1"/><ellipse cx="1475.4" cy="294.4" class="BF" rx="1.2" ry="1.1"/><ellipse cx="1364.7" cy="326.2" class="BF" rx="1.2" ry="1.1"/><ellipse cx="818.8" cy="71.4" class="Ax" rx="2.4" ry="2.3"/><ellipse cx="914.4" cy="41.9" class="Ax" rx="2.4" ry="2.3"/><circle cx="835.8" cy="111.8" r="1" class="Aw"/><circle cx="1260.2" cy="75.2" r="1" class="Aw"/><circle cx="1433.9" cy="102.4" r="1" class="Aw"/><circle cx="937.1" cy="58.3" r="1" class="Aw"/><circle cx="987.6" cy="77.9" r="1" class="Aw"/><circle cx="865.1" cy="84.4" r="1" class="Aw"/><ellipse cx="867.4" cy="273.3" class="Ax" rx="2.4" ry="2.3"/><ellipse cx="936.1" cy="312" class="Ax" rx="2.4" ry="2.3"/><ellipse cx="964.3" cy="260.6" class="Ax" rx="2.4" ry="2.3"/><ellipse cx="796.6" cy="326.2" class="Ax" rx="2.4" ry="2.3"/><ellipse cx="1006.4" cy="266.1" class="Ax" rx="3.7" ry="3.6"/><ellipse cx="1016.2" cy="174" class="Ax" rx="3.7" ry="3.6"/><ellipse cx="1090.6" cy="300.6" class="Ax" rx="3.7" ry="3.6"/><ellipse cx="871.9" cy="141.3" class="Ax" rx="3.7" ry="3.6"/><circle cx="923.8" cy="273.9" r="1" class="Aw"/><circle cx="902.2" cy="298" r="1" class="Aw"/><circle cx="1220.1" cy="123.2" r="2.1" class="BF"/><ellipse cx="1179.1" cy="108" class="Ax" rx="4.3" ry="4.2"/><ellipse cx="983.3" cy="43.2" class="Ax" rx="4.3" ry="4.2"/><ellipse cx="1322.9" cy="52.9" class="Ax" rx="4.3" ry="4.2"/><ellipse cx="1385.6" cy="57.7" class="Ax" rx="2.8" ry="2.7"/><ellipse cx="1423.8" cy="96.4" class="Ax" rx="2.8" ry="2.7"/><circle cx="1112.5" cy="85.4" r="1" class="Aw"/><circle cx="1102.7" cy="88.1" r="1.8" class="Aw"/><path d="M1024.5 303.7a1.79 1.79 0 1 1 0 3.6 1.79 1.79 0 1 1 0-3.6z" class="Aw"/><circle cx="1239.5" cy="55.2" r="1" class="Aw"/><circle cx="1229.6" cy="45.6" r="1.8" class="Aw"/></g><g fill="#95dbb3"><circle cx="1279.8" cy="56.2" r="1.8"/><circle cx="1090.6" cy="65.7" r="1.8"/></g><circle cx="1414.7" cy="69.8" r="1.8" fill="#e9636a"/><ellipse cx="1284.8" cy="47.7" class="Ay" rx=".8" ry=".7"/><g class="BJ Av"><circle cx="1039.7" cy="253.8" r="1" class="Aw"/><circle cx="954.9" cy="289.6" r="1" class="Aw"/><circle cx="970.2" cy="316.6" r="1" class="Aw"/><circle cx="1022.2" cy="244.8" r="1" class="Aw"/><circle cx="1066.7" cy="244.8" r=".5" class="Aw"/><circle cx="1090.1" cy="253" r=".5" class="Aw"/><circle cx="1295.2" cy="263.8" r=".5" class="Aw"/><circle cx="1201.8" cy="281.6" r=".5" class="Aw"/><circle cx="1264" cy="344.6" r=".5" class="Aw"/><circle cx="1112.1" cy="278.4" r=".5" class="Aw"/><circle cx="1582.8" cy="209.6" r="1.6" class="BF"/><ellipse cx="1184" cy="297" class="BA" rx="12.6" ry="12.3"/><ellipse cx="475" cy="234.5" class="BA" rx="6.8" ry="6.6"/><ellipse cx="788.5" cy="193.3" class="BA" rx="23.5" ry="22.9"/><ellipse cx="606.2" cy="277.7" class="BA" rx="12.2" ry="12"/><ellipse cx="703.9" cy="108.2" class="BA" rx="8.2" ry="8"/><ellipse cx="970.2" cy="138.1" class="BA" rx="8.2" ry="8"/><ellipse cx="1402.4" cy="88.1" class="BA" rx="12.2" ry="12"/><ellipse cx="1279.2" cy="222" class="BA" rx="12.2" ry="12"/><ellipse cx="1122.9" cy="248.1" class="BA" rx="18.8" ry="18.4"/><ellipse cx="1067.7" cy="157.8" class="BA" rx="18.8" ry="18.4"/><ellipse cx="1486.8" cy="140.2" class="BA" rx="12.2" ry="12"/><ellipse cx="1553.8" cy="199" class="BA" rx="12.2" ry="12"/><ellipse cx="497.1" cy="90.8" class="BA" rx="7.4" ry="7.3"/><circle cx="1149.8" cy="220" r=".5" class="Aw"/><circle cx="1202.7" cy="243" r=".5" class="Aw"/></g><path d="M1258.9 284.5l10.5 8.8c.1 0 .1.1.2.1h0l9.7 4.5.8-17 .5-.7c.3-.4.3-1 0-1.3l-.4-.4.3-6.1-9.8-3.5h0 0c-.3-.1-.8.1-1 .4l-10.7 13.9c-.4.5-.4 1.1-.1 1.3h0z" class="BZ"/><path stroke-width=".24" d="M1280.8 272.6l10.3 9.7c.3.3.3.9 0 1.3l-10.7 13.9c-.4.5-1 .6-1.4.3l-10.8-9c-.3-.3-.3-.9 0-1.3l11.2-14.5c.4-.6 1.1-.7 1.4-.4h0z" class="BB Ba Bb"/><g class="Bd"><ellipse cx="1132.8" cy="305.5" rx="3.6" ry="3.5"/><ellipse cx="1414.7" cy="268.1" rx="3.6" ry="3.5"/></g><g class="BC"><circle cx="1222.7" cy="276.9" r="1.4"/><circle cx="1039.7" cy="286.1" r="1.4"/><circle cx="1254.3" cy="123.2" r="1.4"/></g><circle cx="497" cy="257.1" r="1.5" class="Ay"/><g fill="#aa83c6"><ellipse cx="508.5" cy="78.5" rx="2.9" ry="2.8"/><ellipse cx="801.5" cy="41.9" rx="2.9" ry="2.8"/></g><g class="BM"><ellipse cx="517" cy="246.1" rx="1" ry=".9"/><circle cx="536.9" cy="265.6" r="2.3"/><circle cx="639.2" cy="286.9" r="2.3"/><ellipse cx="560.4" cy="48.5" rx="1.2" ry="1.1"/></g><g class="Ay"><circle cx="509.1" cy="98" r=".6"/><circle cx="580.4" cy="113.1" r=".6"/><circle cx="554.4" cy="50.2" r=".6"/></g><circle cx="825.7" cy="305.8" r="1.5" class="BM"/><circle cx="388.9" cy="201.1" r="2.3" fill="#9ed8e5"/><circle cx="534.6" cy="169.7" r="1.1" fill="#99cfd9"/><g class="BM"><circle cx="764.9" cy="288.2" r="2.3"/><circle cx="578.7" cy="188.8" r="2.3"/><circle cx="832.4" cy="245.1" r="2.3"/><circle cx="744.8" cy="266.5" r="2.3"/><path d="M718.5 66.7l5.3-7-3.5 8.1 8.9 1-8.9 1.1 3.5 8-5.3-7-5.4 7 3.5-8-8.9-1.1 8.9-1-3.5-8.1zm294-10.3l5.4-7-3.6 8 8.9 1.1-8.9 1 3.6 8.1-5.4-7-5.4 7 3.5-8.1-8.9-1 8.9-1.1-3.5-8zm55.2 13.6l2.6-3.3-1.7 3.8 4.2.5-4.2.5 1.7 3.9-2.6-3.4-2.6 3.4 1.7-3.9-4.3-.5 4.3-.5-1.7-3.8zM794.9 277.4l3.3-4.4-2.2 5 5.5.6-5.5.7 2.2 4.9-3.3-4.3-3.3 4.3 2.2-4.9-5.5-.7 5.5-.6-2.2-5z" class="Av" opacity=".47"/></g><g class="Ay"><use xlink:href="#B"/><path d="M916.9 246l1.3-1.7-.8 1.9 2.1.3-2.1.2.8 1.9-1.3-1.6-1.3 1.6.9-1.9-2.1-.2 2.1-.3-.9-1.9zm236 42.3l1.3-1.6-.8 1.9 2.1.2-2.1.3.8 1.9-1.3-1.7-1.2 1.7.8-1.9-2.1-.3 2.1-.2-.8-1.9zm-146.5 29.9l1.3-1.6-.9 1.9 2.1.3-2.1.2.9 1.9-1.3-1.7-1.3 1.7.8-1.9-2.1-.2 2.1-.3-.8-1.9z"/></g><g class="BM"><path d="M806.6 349l3.3-4.4-2.2 5 5.5.6-5.5.7 2.2 4.9-3.3-4.3-3.3 4.3 2.1-4.9-5.4-.7 5.4-.6-2.1-5zm253.4-79l3.3-4.3-2.1 4.9 5.5.7-5.5.6 2.1 5-3.3-4.3-3.3 4.3 2.2-5-5.5-.6 5.5-.7-2.2-4.9z" class="Av" opacity=".47"/><path d="M384.2 217.4l3-3.9-2 4.5 5 .5-5 .6 2 4.5-3-3.9-3 3.9 1.9-4.5-4.9-.6 4.9-.5-1.9-4.5z"/></g><defs><ellipse id="d" cx="506.5" cy="161.8" rx="25.8" ry="25.2"/></defs><clipPath id="e"><use xlink:href="#d"/></clipPath><g clip-path="url(#e)"><ellipse cx="506.5" cy="161.8" fill="#995ac6" rx="25.8" ry="25.2"/><path d="M494.1 139.7c15.1-2.7-7 23.5-1.8 28.2 5.4 4.8 29.2-3 20.3 3.6-7.2 5.3 8.5 12.4.6 14.6 8.3-2.2 15.3-8.3 18-16.9 4.2-13.3-3.4-27.4-17-31.5-7.1-2.1-14.2-1.2-20.1 2h0z" class="Av Bc" opacity=".44"/><g class="Ay"><path d="M484.2 147.5c15 11.3 33.9 4.3 48-4.8.7-.5 0-1.6-.7-1.2-13.8 8.8-32 15.8-46.6 4.8-.7-.5-1.4.7-.7 1.2h0 0z"/><path d="M474.4 135.1c8.3 14.6 25.8 23 42.4 20.5 5.5-.8 10.9-2.6 15.7-5.4-4.8 2.9-10.1 4.8-15.7 5.5-16.6 2.8-34.3-5.8-42.4-20.6h0 0z"/><path d="M521.3 136.9c-22.8 5.9-30.1 29.8-31.5 50.7-.1 1.1 1.6 1.1 1.7 0 1.3-20.1 8.3-43.4 30.3-49 1-.3.5-2-.5-1.7h0z"/><path d="M541.2 136.7c-20.7-2.9-42.6 7.4-52.9 25.7-3.4 6-5.7 12.7-6.5 19.6.7-6.9 2.9-13.7 6.3-19.7 10.1-18.5 32.3-28.8 53.1-25.6h0 0z"/></g></g><g opacity=".26"><linearGradient id="f" x1="621.779" x2="783.429" y1="153.307" y2="153.307" gradientUnits="userSpaceOnUse"><stop offset="0" stop-color="#aeb8ff"/><stop offset=".27" stop-color="#abb5fd"/><stop offset=".44" stop-color="#a2aef8"/><stop offset=".57" stop-color="#94a2f1"/><stop offset=".69" stop-color="#8091e5"/><stop offset=".81" stop-color="#657bd7"/><stop offset=".91" stop-color="#4560c5"/><stop offset=".99" stop-color="#2545b4"/></linearGradient><use fill="url(#f)" xlink:href="#C"/><path fill="#4496c8" d="M622 222.1l1.7.6c44.8-10.2 86.7-20.4 131.1-26.8 1.9-.3 6.5-2.9 6.4-5.2l-3.9-79.1c0-1.5-1.5-2.9-3.4-3.1-43.2-6.2-84.3-15.5-127.7-24.8-3.4-.7-6.2 2.3-6.2 6.9l-1.3 127.9c0 2.4 1.4 2.7 3.3 3.6z"/><use fill="#9ed8e5" xlink:href="#C"/><path fill="#4496c8" d="M760.5 117.4l-.1-5.3c0-1.5-1.6-2.9-3.4-3.1-44.5-6.2-86.3-15.7-130.6-25.2-1.8-.4-3.2 1.3-3.3 3.7v8.8c48.3 9.4 88.8 16.8 137.4 21.1h0z"/><g class="Ay"><path d="M639.7 93c0 1.3.9 2.6 1.9 2.8s1.8-.7 1.7-2c0-1.3-.9-2.6-1.9-2.8-.9-.3-1.7.6-1.7 2z"/><use xlink:href="#D"/><path d="M628.5 90.6c0 1.3.9 2.6 1.9 2.8s1.8-.7 1.8-2-.9-2.6-1.9-2.8-1.8.7-1.8 2z"/><path d="M738.9 112.3c-23.9-3-46.4-6.8-69.8-11.2-.9-.2-1.6-1.1-1.7-2.2V98c0-1.1.7-1.8 1.5-1.6 23.5 4.8 46.3 9 70.1 12.5.9.1 1.6.9 1.6 1.6v.6c-.1.8-.8 1.3-1.7 1.2h0z" class="Av Ax"/></g><g fill="none" stroke="#fff" stroke-linecap="round" stroke-linejoin="round" stroke-width=".84"><path d="M653.5 99.2l-2.8-3.9 2.5-2.8m3 .6l2.7 3.9-2.5 2.8"/></g><g class="Ay Av"><path d="M750.7 189.5c-40.3 4.6-76 11.6-116.5 20.1-1.2.2-2.1-.9-2.1-2.4 1.3-33.2 1.7-64.1 1.2-96.8 0-1.4.9-2.4 2.1-2.2 40.3 6.8 74 11.7 114.5 14.7 1.2.1 2.2.9 2.2 1.9-.1 21.1.1 41.7.7 62.9.1.9-.8 1.7-2.1 1.8z" opacity=".15"/><path d="M637.6 167.1c41.2-5.1 72.3-8.2 114.5-11 .9-.1 1.6-.5 1.6-1.1v-29c0-.5-.7-1.1-1.6-1.1-40.9-3.3-74.4-8.6-114.6-16-.8-.2-1.5.6-1.5 1.6.4 18.7.4 36.7.1 54.9-.1 1.1.7 1.8 1.5 1.7h0z" opacity=".9"/></g><path fill="#c0c0ff" d="M643.5 157.1c0 2.7 1.9 4.7 4.3 4.5s4.3-2.5 4.4-5.1c0-2.6-1.9-4.6-4.3-4.5-2.3.1-4.3 2.4-4.4 5.1h0z"/><path fill="none" stroke="#8d8dff" stroke-width=".73" d="M659 159.8c28.8-2.6 54.1-4.4 84.9-6.1 2-.1 3.7-1.2 3.7-2.5h0c0-1.3-1.7-2.2-3.7-2.2l-84.8 3.4c-1.9.1-3.4 1.8-3.4 3.9 0 1.4 0 1.4 0 0-.1 2.1 1.4 3.7 3.3 3.5h0z" class="BB"/><path fill="#80d4e9" d="M737.2 127.1c0 .7.8 1.4 1.9 1.5s2-.4 2-1.2c0-.7-.8-1.4-1.9-1.5s-2 .4-2 1.2z"/><path fill="#e03225" d="M732.1 126.7c0 .8.8 1.4 1.9 1.5s1.9-.5 2-1.2c0-.8-.8-1.4-1.9-1.5s-1.9.4-2 1.2z"/><path d="M694.4 121.1l3.2 4-6.4-.7 3.2-3.3h0z" class="Ay"/><g opacity=".19"><path fill="#80d4e9" d="M645.3 149.1l100.4-2.4c1 0 1.7-.5 1.7-1.1l.1-13.3c0-.6-.8-1.1-1.7-1.2-36-1.8-65.5-4.7-100.7-9.1-.9-.1-1.6.7-1.6 1.8l.2 23.5c-.1 1 .6 1.8 1.6 1.8h0z"/><defs><path id="g" d="M645.3 149.1l100.4-2.4c1 0 1.7-.5 1.7-1.1l.1-13.3c0-.6-.8-1.1-1.7-1.2-36-1.8-65.5-4.7-100.7-9.1-.9-.1-1.6.7-1.6 1.8l.2 23.5c-.1 1 .6 1.8 1.6 1.8h0z"/></defs><clipPath id="h"><use xlink:href="#g"/></clipPath><g clip-path="url(#h)"><path fill="#00b4d2" d="M640.8 136.8c14.1 7.8 29 8.1 42.9 6.5 13.9-1.5 27.2-4.6 41.7-6.2 8.4-.9 18-1.2 26 1.9v9l-111.3 3.8.7-15h0z"/></g></g><g opacity=".56"><defs><path id="i" d="M645.3 149.1l100.4-2.4c1 0 1.7-.5 1.7-1.1l.1-13.3c0-.6-.8-1.1-1.7-1.2-36-1.8-65.5-4.7-100.7-9.1-.9-.1-1.6.7-1.6 1.8l.2 23.5c-.1 1 .6 1.8 1.6 1.8h0z"/></defs><clipPath id="j"><use xlink:href="#i"/></clipPath><g clip-path="url(#j)"><path fill="#00b4d2" d="M635.8 134.6c5.5 2 11.1 3.8 16.4 2.7 2.9-.6 5.6-2.1 8.4-2.6 4.3-.8 8.7.4 12.7 2.2 4 1.7 7.7 3.9 11.5 5.5 9.3 3.9 19.4 5.6 29.8 5.1v2.9l-80.5 3.6 1.7-19.4h0z"/></g></g><path d="M711.2 135.9c0 2.4 2.3 4.5 5.3 4.5s5.4-1.8 5.5-4.1c0-2.3-2.4-4.3-5.4-4.5-2.9-.2-5.4 1.7-5.4 4.1z" class="Ay"/></g><path d="M758 68.2l7.9-11.3s0-.1.1-.2h0l4.1-9.8-15.4 2.2-.6-.4c-.4-.2-.9-.1-1.1.2l-.3.5-5.5.8-3.2 9.7s-.1.6.4.9l12.6 7.5c.2.3.7.2 1-.1h0z" class="Bd"/><path fill="#7bbfc9" stroke="#11a4b7" stroke-width=".55" d="M747.2 49.9l8.7-11.3c.3-.3.8-.4 1.2-.2l12.5 7.5c.4.3.6.8.3 1.2l-8.1 11.7c-.3.4-.8.5-1.2.2l-13.1-7.9c-.5-.2-.6-.8-.3-1.2h0z" class="BB"/><path d="M835.1 258.2l-13.4 5c-.1 0-.1.1-.2.1h0l-9.3 6 14.3 6.8.3.6c.2.4.7.6 1.1.5l.6-.2 5.2 2.5 8.5-6.4s.4-.5.2-1l-6.1-13.5c-.2-.3-.7-.5-1.2-.4h0z" class="Az"/><path d="M819 284.1c-.3 0-.5-.2-.6-.4l-6.1-13.5c-.1-.2-.1-.4 0-.5s.2-.3.4-.4l13.8-5.2h.2c.3 0 .5.2.6.4l6.4 14.1c.1.2.1.4 0 .5s-.2.3-.4.4l-14.1 4.6c0 0-.1.1-.2 0h0z" class="BC"/><path d="M826.7 264.4c.2 0 .3.1.4.3l6.4 14.1v.3c0 .1-.1.2-.2.2l-14.1 4.6h-.1c-.2 0-.3-.1-.4-.3l-6.1-13.5v-.3c0-.1.1-.2.2-.2l13.8-5.2c-.1 0 0 0 .1 0m0-.5c-.1 0-.2 0-.3.1l-13.8 5.2a.88.88 0 0 0-.5 1.2l6.1 13.5c.2.3.5.5.8.5h.3l14.1-4.6c.5-.2.8-.7.5-1.2l-6.4-14.1c-.1-.3-.4-.5-.8-.6h0 0z" class="Az"/><path d="M1418.2 143.3l4.1-5.2-2.6 6 6.6.8-6.6.8 2.6 6-4.1-5.2-4 5.2 2.7-6-6.7-.8 6.7-.8-2.7-6z" class="Av BM" opacity=".47"/><g class="BJ Av"><path d="M1279.2 80.3l1.7-2.1-1.1 2.5 2.8.3-2.8.3 1.1 2.5-1.7-2.1-1.6 2.1 1.1-2.5-2.8-.3 2.8-.3-1.1-2.5z" class="BA"/><path d="M1452.9 276.7l4-5.2-2.6 6 6.7.8-6.7.8 2.6 6-4-5.2-4 5.2 2.6-6-6.6-.8 6.6-.8-2.6-6zm-558.8-219l4.1-5.2-2.7 6 6.7.8-6.7.8 2.7 6-4.1-5.2-4 5.2 2.6-6-6.6-.8 6.6-.8-2.6-6zm89.2 225.9l4-5.2-2.6 6 6.7.8-6.7.8 2.6 6-4-5.2-4 5.2 2.6-6-6.7-.8 6.7-.8-2.6-6z" class="BE"/></g><g class="Az"><path d="M1556.3 256.2l-14.5 6.4c-.4.2-1 0-1.2-.4l-7.9-13.8c-.3-.5-.1-1.1.4-1.3l14.2-6.9c.5-.2 1-.1 1.3.4l8.2 14.2c.3.6.1 1.2-.5 1.4h0z"/><path d="M1523.8 255.5l9.2-8.2 23.7 8.7-8.3 8.6z"/></g><path d="M1532.7 271.1c-.3 0-.5-.1-.6-.4l-8.1-14.2c-.1-.2-.1-.4-.1-.6a.78.78 0 0 1 .4-.4l14.7-7.1c.1-.1.2-.1.3-.1.3 0 .5.1.6.4l8.5 14.9c.1.2.1.4.1.6a.78.78 0 0 1-.4.4l-15 6.5h-.4 0z" class="BC"/><path d="M1539.1 248.6c.2 0 .3.1.4.2l8.5 14.9c.1.1.1.2 0 .3 0 .1-.1.2-.2.2l-15 6.5h-.2c-.2 0-.3-.1-.4-.2l-8.1-14.2c-.1-.1-.1-.2 0-.3 0-.1.1-.2.2-.2l14.7-7.1c0 0 .1 0 .1-.1m0-.5c-.2 0-.3 0-.4.1l-14.7 7.1c-.5.2-.7.9-.4 1.4l8.1 14.2c.2.3.5.5.9.5.1 0 .3 0 .4-.1l15-6.5c.5-.2.8-.9.5-1.4l-8.5-14.9c-.2-.2-.5-.4-.9-.4h0 0z" class="Az"/><path d="M555 223.5l8.7-12.2 13.5 6.3-8.8 12.4z" class="BB BN BO Be"/><path fill="#47436c" d="M568.4 230l3.4 9.8-13-6.4-3.8-9.9z"/><path d="M523.8 241.7l9.2-12.4 13 6.6-9.1 12.5z" class="BB BN BO Be"/><path fill="#33314e" d="M546 235.9l4.2 9.5-8.7 12.2-4.6-9.2z"/><path fill="#45426a" d="M559.4 242.6l3.8 9.4-13-6.6-4.2-9.5z"/><g class="BB BN BO Be"><path d="M546 235.9l9-12.4 13.4 6.5-9 12.6z"/><path d="M536.9 248.4l9.1-12.5 13.4 6.7-9.1 12.8z"/></g><path d="M523.6 241.7l5.3 10.9 25.6 13.6 25.9-36.8-2.9-11.9-9.1 12.5-9 12.6-9.1 12.8-13.4-7z" class="Bf"/><path d="M1151.6 50.6l5.8-13.5 13.2 8.1-6.1 13.5z" class="BR"/><path d="M1157.5 37.5l12.6 7.7-5.8 12.9-12.4-7.7 5.6-12.9m-.3-.9l-6.1 14.1 13.5 8.4L1171 45l-13.8-8.4h0z" class="BK"/><path fill="#353351" d="M1171 45l10.3-4-6.2 13.7-10.4 4.5z"/><path d="M1185 53.6l9.9-4.4-6.5 13.7-10 4.9z" class="BK"/><path d="M1165.1 59l6-13.5 13.5 8.2-6.3 13.6z" class="BR"/><g class="BK"><use xlink:href="#E"/><path d="M1194.9 49.2l-25.1-16.4-12.6 3.8L1171 45l14 8.6h0z"/></g><path d="M1171.6 44.9l5.8-13.5 13.2 8.1-6.1 13.5z" class="BR"/><path d="M1177.6 31.9l12.6 7.7-5.8 12.9-12.4-7.7 5.6-12.9m-.3-1l-6.1 14.1 13.5 8.4 6.3-14.1-13.7-8.4z" class="BK"/><path fill="#353351" d="M1191 39.3l10.3-4-6.2 13.7-10.4 4.5z"/><path d="M1205 47.9l9.9-4.3-6.5 13.7-10 4.8z" class="BK"/><path d="M1185.1 53.4l6.1-13.6 13.4 8.3-6.3 13.5z" class="BR"/><g class="BK"><path d="M1191.3 40.3l12.9 7.9-6 12.9-12.6-7.9 5.7-12.9m-.3-1l-6.3 14.1 13.7 8.6 6.6-14.1-14-8.6h0 0z"/><path d="M1214.9 43.6l-25.1-16.5-12.6 3.8 13.8 8.4 14 8.6h0z"/></g><g fill="#7a489c" stroke="#ad85c9" class="BB Bg"><path d="M1510.6 218.8l-4.3 26.4-24.4-.3 4.1-26.7z"/><path d="M1486 218.2l-4.1 26.7-25.1-.3 3.9-27.1z"/><path d="M1460.7 217.5l-3.9 27.1-25.9-.2 3.7-27.5z"/><path d="M1434.6 216.9l-3.7 27.5-26.7-.3 3.6-27.9z"/></g><path fill="#ad85c9" d="M1492.3 208.8l-99.9-3.1-3.3 27 15.1 11.4 3.6-27.9 26.8.7 26.1.6 25.3.7 24.9.4z"/><path fill="#8d61ac" d="M1407.7 216.2l-15.3-10.5-3.3 27 14.8 11.8z"/><g fill="#340953"><path d="M1427.8 206.8l-27.8 4.1-8.9 5.5 1.3-10.7zm-36.9 10.7h6.7l1.7 23.4-10.2-8.2z"/></g><g fill="#ad85c9"><path d="M1439.8 220l13.1.3-.5 3.7-9.1-.2-.8 5.5 7.4.3-.4 3.3-7.4-.3-.7 5.2 9.8.1-.4 3.3-13.8-.2 2.8-21zm26.2 15.7s2.1 2.3 5 2.4c1.6.1 3.2-.6 3.3-2.2.4-3.5-9.7-3.6-9-9.9.3-3.4 3.6-5.4 7.7-4.8 4.2.6 6.1 2.9 6.1 2.9l-2 2.6s-1.8-1.9-4.5-2.2c-1.8-.2-3.3.6-3.4 2-.4 3.5 9.7 3.6 9 9.6-.3 3-3.2 5.5-7.6 5.4-4.7-.1-7-3-7-3l2.4-2.8h0zm24.8.5s2 2.2 5 2.4c1.6.1 3.1-.6 3.3-2.2.4-3.4-9.5-3.6-8.9-9.8.3-3.3 3.6-5.4 7.6-4.8 4.1.6 6 2.9 6 2.9l-1.9 2.6s-1.8-1.9-4.4-2.2c-1.8-.2-3.2.6-3.4 1.9-.4 3.5 9.5 3.6 8.9 9.5-.3 3-3.1 5.5-7.5 5.4-4.6-.1-6.9-3-6.9-3l2.2-2.7h0zm-76.8-17.1l4.8.1-2.3 17.9 9 .1-.6 3.7-13.2-.1 2.3-21.7h0z"/></g><path stroke-width=".46" d="M1345.2 250.3l-21-1.1-2.4-19.9 21.3.9z" class="BB BN BO"/><path fill="#5b5282" d="M1343.1 230.2l9.1-11.1 1.9 19.5-8.9 11.7z"/><path fill="#464065" d="M1366.5 251.4l8.2-11.8 21 1-7.5 11.9z"/><path fill="#585180" d="M1364.7 231.2l8.4-11.3 1.6 19.7-8.2 11.8z"/><g stroke-width=".46" class="BB BN BO"><path d="M1366.5 251.4l-21.3-1.1-2.1-20.1 21.6 1z"/><path d="M1388.2 252.5l-21.7-1.1-1.8-20.2 22 .9z"/></g><path d="M1397.9 241.1l-1.5-21.7-62.8-2.4-12 12.1 21.5 1.1 21.6 1 22 .9 1.5 20.4z" class="Bf"/><path fill="#1087ad" d="M1328.6 222.1l22.5-4.5-17.5-.6z"/><path fill="#88c9df" d="M1387.1 232.2l9.3-12.8 1.5 21.7-9.2 11.8z"/><g class="Bf"><path d="M1354.3 233.4c4.4-.4 8.1 2.6 8.5 6.7.4 4.3-2.6 8-7 8.4s-8.1-2.6-8.5-6.9c-.4-4.2 2.6-7.8 7-8.2h0zm1.3 12.7c2.7-.3 4.7-2.7 4.4-5.7-.3-2.9-2.7-4.8-5.4-4.6-2.7.3-4.7 2.6-4.4 5.5.2 3 2.6 5 5.4 4.8h0zm-25.9-13.6l8.8.4.3 2.5-6-.2.5 4.2 5.1.1.3 2.4-5.1-.2.7 5.7-2.8-.2-1.8-14.7h0zm39.6 1.4h5.6c1.9 0 2.8.1 3.6.4 1.8.7 3 2.2 3.2 4.2.1 1.8-.8 3.5-2.6 4.2h0s.3.2.7.8l4.5 6.5-3.2-.1-4.7-6.4h-3.1l.5 6.1-3.2-.2-1.3-15.5h0zm6.5 7.2c1.7 0 2.7-.9 2.6-2.4s-.9-2.4-3.4-2.4h-2.4l.4 4.8h2.8 0z"/></g><g class="BB BS BT Bg"><path d="M1295.1 127.9l.4-30.1 27.3-3.5-.1 30.4z"/><path d="M1322.7 124.7l.1-30.4 28.1-3.7.1 30.9z"/><path d="M1351 121.5l-.1-30.9 28.9-3.8.4 31.3z"/><path d="M1380.2 118.1l-.4-31.3 29.7-3.9.7 31.8z"/></g><path fill="#83c5d5" d="M1317.1 136.2l112-12.3-.8-30.7-18.5-10.5.4 32-30 3.4-29.2 3.4-28.3 3.2-27.9 3.6z"/><path fill="#003e7c" d="M1326.5 135.2l50.8-15.2 18.1 7.6z"/><g class="BU Ay"><path d="M1298.5 101.6l4.6-.5 4.7 10.4c.6 1.2 1.2 3.1 1.2 3.1h.1l1.1-3.4 4.6-11.4 4.6-.5 2.3 21.9-4.3.5-1.2-12.2-.1-3.4h-.1l-1.2 3.6-3.8 9-3.8.4-3.9-8.1c-.6-1.2-1.3-3.3-1.3-3.3h-.1s.1 2 0 3.5l-.9 12.4-4.4.5 1.9-22.5h0z"/></g><g class="BU Ay"><path d="M1341 112.7l-8.7 1.1-1.8 6.2-4.7.6 7.6-24.1 4.7-.6 10 21.9-4.6.6-2.5-5.7h0zm-5-12.5s-.4 2.3-.9 3.7l-1.9 6.4 6.5-.8-2.5-5.9-1.2-3.4h0 0z"/></g><g class="BU Ay"><path d="M1356.7 93.6l4.6-.5.2 9.6 3.3-.4 5.7-10.3 5-.6-6.8 12.1v.1l8.1 11.4-5.2.6-6.6-9.6-3.3.4.3 10.3-4.7.5-.6-23.6h0z"/></g><g class="BU Ay"><path d="M1386.7 89.2l15.5-1.9.1 3.8-10.8 1.3.2 6.4 8.8-1.1.2 3.8-8.8 1.1.3 6.6 11.5-1.4.2 3.8-16.3 1.9-.9-24.3h0z"/></g><path fill="#009ab7" d="M1429.1 123.9l-18.6-9.3-.7-31.9 18.5 10.5z"/><g class="BB Ba Bb"><path stroke-width=".62" d="M1270.4 182.7l-3.8-29.8 26.6-7.2 4 30.2z"/><g class="Bg"><path d="M1297.2 175.9l-4-30.2 27.3-7.3 4.4 30.5z"/><path d="M1324.9 168.9l-4.4-30.5 28.1-7.6 4.7 30.9z"/><path d="M1353.3 161.7l-4.7-30.9 28.9-7.9 5.1 31.4z"/></g></g><path d="M1293.3 188l109.3-27.1-5.1-30.2-19.8-8.2 4.9 31.8-29.3 7.4-28.4 7.2-27.7 7-27 7.2z" class="BZ"/><path fill="#0b5c4a" d="M1310.2 183.8l-.3-6.1 50.8-6.4z"/><g fill="#9ee8be"><path d="M1272.6 156.2l3.6-1 6.7 11.5h.1l1.7-13.8 3.8-1 6 19.6-3.5.9-3.8-13.5h-.1l-1.9 11-3 .6-6.3-9.3h-.1l.7 15-3.6.9-.3-20.9h0zm34.2-9.8c5.8-1.5 11.1 2.1 12.2 8.1 1.1 6.1-2.4 12-8.2 13.5s-11.2-2.2-12.3-8.4c-1-6 2.5-11.8 8.3-13.2zm3.4 18.1c3.6-.9 5.9-4.8 5.2-9.1-.8-4.1-4.2-6.4-7.9-5.5s-6 4.7-5.2 8.8c.8 4.3 4.3 6.7 7.9 5.8h0zm15.6-23.7l7.8-1.9c2.6-.6 3.8-.7 4.9-.6 2.6.4 4.4 2.2 5 5.2.5 2.7-.6 5.6-3 7.1v.1s.4.2 1 .9l6.5 7.1-4.9 1.2-6.3-7.1-4.2 1.1 1.5 8.4-4.4 1.1-3.9-22.6h0zm10.1 8.5c2.3-.6 3.6-2.2 3.2-4.5-.4-2.1-1.6-3.2-5-2.4l-3.3.8 1.2 7 3.9-.9h0zm20.9-16.4l13.6-3.7.6 4.2-9.5 2.5.9 5.9 7.6-2 .5 3.5-7.6 2 .7 5 10-2.6.7 4.4-14.2 3.5-3.3-22.7h0zm45.8 28l-20-6.6-4.9-31.8 19.8 8.2z"/></g><path d="M1414.8 177.7l26.3-3.5.3 28.9-26.5 3.7z" class="BC"/><path d="M1440.9 174.4l.3 28.6-26.1 3.6-.1-28.8 25.9-3.4m.3-.4l-26.6 3.6.1 29.4 26.8-3.7-.3-29.3h0 0z" class="Az"/><path d="M1387.5 181.1l27-3.4.1 29.2-26.8 3.7z" class="BC"/><path d="M1414.3 177.9l.1 28.8-26.5 3.7-.3-29.2 26.7-3.3m.4-.4l-27.4 3.4.3 29.8 27.1-3.8v-29.4h0 0z" class="Az"/><path d="M1441.4 174.1l27-3.6.1 28.6-26.8 4z" class="BC"/><path d="M1468.3 170.7l.1 28.3-26.5 4-.3-28.6 26.7-3.7m.3-.4l-27.4 3.7.3 29.3 27.1-4.1v-28.9h0 0z" class="Az"/><path d="M1468.8 170.4l26.8-3.6.3 28.2-27.1 4z" class="BC"/><path d="M1495.4 167l.3 27.9-26.7 4v-28.3l26.4-3.6m.4-.4l-27.1 3.7v28.9l27.4-4.1-.3-28.5h0z" class="Az"/><path d="M1359.3 184.5l27.8-3.4.4 29.5-27.6 3.8z" class="BC"/><path d="M1387 181.3l.3 29.2-27.2 3.8-.6-29.6 27.5-3.4m.3-.4l-28.2 3.5.6 30.2 27.9-3.9-.3-29.8h0 0z" class="Az"/><path d="M1330.3 188.1l28.6-3.5.6 29.9-28.4 3.9z" class="BC"/><g class="Az"><path d="M1358.8 184.7l.6 29.6-28.1 3.9-.9-30 28.4-3.5m.3-.3l-29 3.6.9 30.7 28.7-4-.6-30.3h0 0z"/><path d="M1464.5 161.2l-152.8 18 1 29.6 18.3 9.8-.9-30.7 29-3.5 28.2-3.5 27.4-3.3 81.4-11.2z"/><g class="Ax"><path d="M1345.3 190.2c6.1-.6 10.8 4 10.9 10.5.1 6.7-4.5 12.4-10.7 13.1s-10.8-4.1-10.9-10.8c0-6.5 4.6-12.1 10.7-12.8h0zm.2 19.8c3.8-.4 6.8-4.2 6.8-8.9-.1-4.5-3.1-7.5-6.9-7.1s-6.8 4.1-6.8 8.5c.1 4.7 3.1 7.9 6.9 7.5h0z"/></g><g class="Ax"><path d="M1365.2 187.3l3.4-.4 8.4 12.7c.8 1.2 1.6 3.1 1.6 3.1h.1l-.1-3.2-.5-13.8 3.7-.5.5 23.1-3.7.5-7.9-11.9c-.8-1.2-1.8-3.3-1.8-3.3h-.1s.3 2.2.3 3.5l.4 13.1-3.7.5-.6-23.4h0z"/></g><g class="Ax"><path d="M1447.3 177.1l3.2-.4 7.9 12c.8 1.1 1.5 2.9 1.5 2.9h.1l-.1-3.1-.5-13 3.5-.4.5 21.7-3.4.5-7.5-11.2c-.8-1.1-1.7-3.1-1.7-3.1h-.1l.3 3.3.4 12.3-3.5.5-.6-22h0z"/></g><g class="Ax"><path d="M1395.1 183.8l3.9-.5.1 19.1 8.9-1.3v3.7l-13 1.9.1-22.9h0z"/></g><g class="Ax"><path d="M1425.3 179.9l4.1-.5.3 22.3-4.1.6-.3-22.4h0z"/></g><g class="Ax"><path d="M1475.8 173.5l12.8-1.7v3.2l-8.9 1.6v5.4l7.2-.9v3.2l-7.2.9v5.6l9.4-1.1v3.2l-13.2 1.9-.1-21.3h0z"/></g></g><path fill="#df804e" d="M1330.1 187.9l-18.4-8.7 1 29.6 18.3 9.8z"/><path d="M1552.5 177.9l-3 12.9-13.1-.7 2.9-13.1z" class="BB BS BT Bh"/><path fill="#47436c" d="M1539.3 177l-6.2-6.8 12.8.9 6.6 6.8z"/><path d="M1571.7 152.8l-3.2 13.1-12.9-1.1 3.1-13.3z" class="BB BS BT Bh"/><path fill="#33314e" d="M1555.6 164.8l-6.8-6.4 3-12.9 6.9 6z"/><path fill="#45426a" d="M1542.3 163.7l-6.4-6.4 12.9 1.1 6.8 6.4z"/><g class="BB BS BT Bh"><path d="M1555.6 164.8l-3.1 13.1-13.2-.9 3-13.3z"/><path d="M1558.7 151.5l-3.1 13.3-13.3-1.1 3-13.5z"/></g><path fill="#009ab7" d="M1571.9 152.6l-8.1-7.2-25.7-2.6-8.4 38.6 6.5 8.8 3.1-13.2 3-13.3 3-13.5 13.4 1.3z"/><path d="M413 276.4c-15.2 15.6-51.8 38.1-17.5 33.3 41.1-5.8 52.6-26.3 52.9-31.3 1.3-19.6-32.1-5.9-35.4-2h0z" class="Bi"/><path fill="#491732" d="M458.4 304.2c-1-3-16.7-5.1-19.8-3.5-.4-.4-8 5.6-7.1 8.2.1.4.4 1.2.5 1.7.5 1.6 28.4-.2 26.4-6.4h0z"/><g class="BP"><path d="M414.4 302c-12 3.6 8 8.6-4.5 8.4-2.4 0-36.8-2.4-39-3.3-27.7-11.7-7.6-27.9-4.4-30.9 1.8-1.6 46.8 2.5 51.5 4 4.6 1.6 9.9 17.8-3.6 21.8h0z"/><path d="M430.6 290.9c-18 1.7-26.3-8.3-43.8-12.9-9.2-2.4-21.7 17.5-30.6 12.7 5.2-46.7 24.5-98.6 48.5-111.1 2.5-1.3 11.3-4.7 29.1 8.1 5.9 4.2 11.3 17.6 2.1 24.5-13.2 9.9 11.1 55-17.8 68.1a7723.08 7723.08 0 0 1 12.5 10.6h0z"/><use xlink:href="#F"/></g><linearGradient id="k" x1="-2235.796" x2="-2285.496" y1="313.049" y2="297.899" gradientTransform="matrix(0.9978 6.679634e-02 6.679634e-02 -0.9978 2679.2151 648.4674)" gradientUnits="userSpaceOnUse"><stop offset=".09" stop-color="#f0821e"/><stop offset=".18" stop-color="#f0811e" stop-opacity=".98"/><stop offset=".3" stop-color="#f07f1e" stop-opacity=".91"/><stop offset=".43" stop-color="#f07c1f" stop-opacity=".8"/><stop offset=".57" stop-color="#f07820" stop-opacity=".65"/><stop offset=".72" stop-color="#f07221" stop-opacity=".46"/><stop offset=".87" stop-color="#f06c22" stop-opacity=".22"/><stop offset="1" stop-color="#f16624" stop-opacity="0"/></linearGradient><use fill="url(#k)" xlink:href="#F"/><path fill="#231f20" d="M454.3 192.3s5.4-4.1 6.2-3.5 1 4.5-2.2 7.6c-1.9 2-4-4.1-4-4.1h0z"/><g fill="#80544f"><ellipse cx="446.9" cy="198.7" rx="1.3" ry="1.2" transform="matrix(.049198 -.9988 .9988 .049198 226.3914 635.2933)"/><circle cx="444.1" cy="201.3" r=".7"/><circle cx="447.5" cy="202.2" r="1"/></g><g class="BP"><path d="M424 173.8s6.2 3.7-3.2 15.3l-7.6-.6 3.5-4.9 7.3-9.8h0z"/><path d="M420.3 188.2c.7-2.5 3-4.4 4.4-6.2 2.7-3.6-.6-11.7-4.2-7.9-1.9 2-2.5 5.4-3.3 7.6l3.1 6.5h0z"/></g><ellipse cx="432.5" cy="191.2" class="Av Bi" opacity=".62" rx="6.1" ry="4.8" transform="matrix(.009076 -1 1 .009076 237.3671 621.877)"/><path d="M433 185.1c2.2-.1 4.1 2.3 4.3 5.3s-1.4 5.6-3.6 5.7-4.9-2.2-5.1-5.2 2.2-5.7 4.4-5.8z" class="Ay"/><ellipse cx="435.3" cy="189.6" fill="#896239" rx="1.8" ry="3.6" transform="matrix(.9823 -.1872 .1872 .9823 -27.7973 84.8402)"/><path fill="#d9a556" d="M436.9 189.3c.3 1.8-.1 3.3-1 3.4s-1.9-1.2-2.2-2.9c-.3-1.8 1 1.5 1.9 1.3s.9-3.5 1.3-1.8h0z" class="Av" opacity=".4"/><ellipse cx="435.6" cy="189.2" fill="#231f20" rx="1.3" ry="2.6" transform="matrix(.9823 -.1872 .1872 .9823 -27.7173 84.8889)"/><ellipse cx="436" cy="188.1" class="Ay" rx=".2" ry=".4" transform="matrix(.9824 -.187 .187 .9824 -27.4918 84.8678)"/><path d="M436.4 187s-6.7-5.2-8.5 6c-1.2-3.7-.8-6.9 2.9-8.6 3-1.3 5.6 2.6 5.6 2.6h0z" class="BP"/><path d="M436.4 186.9c-1.7-.5-3.6-.1-5.4 1.5-1.3 1.1-2.5 2.6-3.3 4.5 0 0-.6-4.8 2.2-6.6 4.2-1.7 6.5.6 6.5.6" class="BV"/><path d="M436.4 186.9c-2.9-.8-6.8.3-8.7 6.4 0 0-1.5-5.6 2.4-7.6 3.9-2.2 6.3 1.2 6.3 1.2" class="BP"/><path d="M435.9 212.2c-2.7-.6-7.7-4.9-8.5-6.2-1.2-1.8-4.4-1.1-3.5 2.6 1 4 5.9 4.2 6.4 4.3 2.3.1 5.6-.7 5.6-.7z" class="Ay"/><g fill="#db531d"><use xlink:href="#G"/><path d="M430.1 197.8l13.7-3.9c1.3-.4 1.9-1.8 1.2-2.9l-7-12.7c-.6-1-1.9-1.4-2.9-.8l-11.8 7.4c-.9.6-1.2 1.8-.7 2.7l5.1 9.2c.5.8 1.5 1.3 2.4 1h0z"/><path d="M430.1 197.9l13.3-3.8c1.2-.4 1.8-1.7 1.2-2.9l-6.8-12.3c-.5-1-1.8-1.3-2.8-.7l-11.5 7.1c-.9.6-1.2 1.7-.7 2.6l4.9 9c.6.9 1.5 1.2 2.4 1h0z"/></g><path fill="#9baeff" d="M430.8 193.8l-20.1 10.1s-4.2-1.7-3.3-5.7l18.2-11.4 5.2 7h0z"/><path d="M420.9 198.8l10-5-5.2-7-3.4 2.1c.6 3.6.4 7.1-1.4 9.9h0z" class="BL"/><path fill="#cfd8ff" d="M430.5 197.2l13.7-3.9c1.3-.4 1.9-1.8 1.2-2.9l-7-12.7c-.6-1-1.9-1.4-2.9-.8l-11.8 7.4c-.9.6-1.2 1.8-.7 2.7l5.1 9.2c.5.8 1.5 1.2 2.4 1h0z"/><path fill="#9baeff" d="M430.5 197.3l13.3-3.8c1.2-.4 1.8-1.7 1.2-2.9l-6.8-12.3c-.5-1-1.8-1.3-2.8-.7l-11.5 7.1c-.9.6-1.2 1.7-.7 2.6l4.9 9c.6.8 1.5 1.2 2.4 1h0z"/><g class="BP"><path d="M413.3 281.5c-22.1 13.8-70.8 29.5-29.6 33.6 49.2 4.9 68.4-15.7 70.1-21.3 7-22.3-35.5-15.8-40.5-12.3h0zm15-68.4c18.8-1.1 56.9-13.2 56.9-13.2l1.4 5.2s-39.7 35.2-56.2 40.4c-23.7 7.5-23.4-31.2-2.1-32.4z"/></g><path d="M500.5 204.9c.4 0 .9 0 1-.4.1-.2 0-.4-.1-.6-1.3-3-3.4-5.6-5.9-7.6-1.9.6 1 2.8.8 4.3-.2 1.8-11.3.9-8.8 4.1 3.5-.7 11.6.1 13 .2h0z" class="Bi"/><path fill="#ef6422" d="M492.6 203.9c5.2-.3 7.6-2 12.1-4.7-.7-3.1-3-1.4-5.6-.4-1.4.6-2.9.9-4.4 1.1-2.3.4-4.8-.7-6.3-2.4-1.6-1.8-1.1-2.2-1.3-4.6-.1-1.4-2.7-4.3-3.2-2.5-.3 1.1.6 4.5.7 6.3.1 2.4-.4 4.4-1.5 6.5-.1.3-.3.6-.2.9.1.2.3.4.5.6 2.1 1.9 2.1 1 4 0 1.6-.8 3.5-.7 5.2-.8h0z"/><g class="BV"><use xlink:href="#H"/><path d="M358.6 286.8c-6.7-.5-22.9 6.2-23.3 9.2s18.2-.6 25.7-.8l-2.4-8.4h0zm-1.6-10.3c-6.7-.5-22.9 6.2-23.3 9.2s18.2-.6 25.7-.8l-2.4-8.4h0z"/><use xlink:href="#I"/></g><path d="M361.7 279.5c-6.3-2.1-23.9.7-25 3.5s17.9 3.6 25.2 5.2l-.2-8.7z" class="Bj"/><path d="M393.7 203s8.1-5.3 12-6.4c7.2-2.1 24.8-4.8 4 7.3 0 0 39.6-9.5 2.7 4.7 0 0 35.4-6.2 3.6 5.8 0 0 33.9 5.5 2.8 8.7 0 0 22.6 5.6-2.2 9.5 0 0 19 6 1 5.6 0 0 36.6 9.8.6 8.5 0 0 31.8 14.7.5 10 0 0 30.3 14.6-.3 7.4 0 0 35.3 12.6.1 8.4 0 0 27 10.8-2.6 8.6 0 0 24 18.4-2.7 5.2 0 0 21.7 20.1-6 6.3 0 0 20.8 25-6 5.8 0 0 14 22.3-5.9 5.3 0 0 5.7 16-4 2.1 0 0 6.7 20.5-3.5 1.9 0 0 5 20.9-4.4.1 0 0-1.5 25.4-5.9 3.2 0 0 2.3 28.8-5.9 2.1 0 0-11.1 21.8-10.2-.6 0 0-3.3 20-7.4-.8 0 0-6.2 22.1-4.1-.9 0 0-16.7 16.1-9.2-3 0 0-14.5 5.9 1.6-9.7 0 0 27.4 11.3 44.3-6.2 16.8-17.5 20.4-36.4 17.6-62.5-3.5-30.8.7-24.1-10.5-26.4h0z" class="BV"/><path d="M389.3 210.1c1.9-4.5 14-11.3 16.1-8.7 1 1.2-1.8 2.8-6 11.1 0 0 27-10.6 2.3 4 0 0 35.1-3.6 3.1 5 0 0 28.9 4.7 2.3 7.4 0 0 37.1 3.9 1.5 6.9 0 0 16.2 5.1.8 4.7 0 0 31.2 8.3.5 7.2 0 0 27.1 12.5.4 8.5 0 0 25.8 12.4-.2 6.3 0 0 30 10.8.1 7.2 0 0 23 9.2-2.2 7.4 0 0 20.4 15.6-2.3 4.4 0 0 18.5 17.1-5.1 5.4 0 0 17.7 21.3-5.1 5 0 0 11.9 19-5 4.5 0 0 4.8 13.6-3.4 1.8 0 0 8.5 29.2-5.1 1.6 0 0 2.9 18.9-5.1 1.1 0 0 0 20.2-3.8 1.3 0 0 1.4 23.8-5.5 1.1 0 0-1.6 26.8-6 .6 0 0-2.8 17-6.3-.7 0 0-5.3 18.9-3.5-.8 0 0-14.2 13.7-7.9-2.5 0 0-15.8 7 3.6-7.9 0 0 21.1 9.2 35.5-5.8 14.3-14.9 27.1-33.9 15-53.3-8.7-13.7-11-17.2-8.7-22.8h0z" class="Bj"/><g class="BG"><path d="M415.4 229.6c0-.9-3.8-1.9-8.4-2.1s-8.5.4-8.5 1.4c0 .9 3.8 1.9 8.4 2.1s8.5-.5 8.5-1.4zm-4.5-9.9c-.4-.9-4.2-.4-8.6 1.1s-7.7 3.4-7.3 4.3 4.2.4 8.6-1.1c4.3-1.5 7.6-3.4 7.3-4.3zm-8.6-9.8c-.6-.7-4.1.9-7.7 3.6s-6 5.6-5.4 6.3 4.1-.9 7.7-3.6c3.7-2.8 6.1-5.6 5.4-6.3zm14.1 34.5c0-.9-3.7-1.9-8.4-2.1s-8.5.4-8.6 1.3c0 .9 3.7 1.9 8.4 2.1s8.6-.3 8.6-1.3z"/><use xlink:href="#J"/><path d="M407 287c.3-.9-3.1-2.7-7.5-4.1s-8.3-1.8-8.6-.9 3.1 2.7 7.5 4.1 8.3 1.8 8.6.9zm-13.5 13.8c.9-.5-.3-3.9-2.6-7.8-2.3-3.8-4.9-6.6-5.8-6.1s.3 3.9 2.6 7.8c2.3 3.8 4.9 6.5 5.8 6.1zm-16.5 3.3c.8-.1 1-2.9.4-6.2-.5-3.3-1.6-6-2.4-5.9s-1 2.9-.4 6.2c.5 3.4 1.6 6 2.4 5.9zm-16.1 4c.8.1 1.8-2.5 2.2-5.9.5-3.4.2-6.1-.6-6.2s-1.8 2.5-2.2 5.9c-.4 3.3-.1 6.1.6 6.2h0z"/></g><path d="M387.5 217.6c1.2-1.1 13.6-10.2 6.6 1.9 0 0 22.8-8.9 1.9 3.4 0 0 29.6-3.1 2.6 4.2 0 0 24.4 4 2 6.2 0 0 31.3 3.3 1.3 5.8 0 0 13.6 4.3.7 4 0 0 26.3 7 .5 6.1 0 0 22.9 10.6.4 7.2 0 0 21.7 10.5-.2 5.3 0 0 25.3 9.1.1 6 0 0 19.4 7.7-1.8 6.2 0 0 17.2 13.2-1.9 3.7 0 0 15.6 14.4-4.3 4.5 0 0 14.9 17.9-4.3 4.2 0 0 10 16-4.2 3.8 0 0 4.1 11.5-2.8 1.5 0 0 7.2 24.6-4.3 1.3 0 0 2.4 15.9-4.3 1 0 0 0 17.1-3.2 1.1 0 0 1.2 20-4.7.9 0 0-1.4 22.6-5 .5 0 0-2.4 14.3-5.3-.6 0 0-4.4 15.9-3-.7 0 0-12 11.5-6.6-2.1 0 0-13.3 5.9 3-6.6 0 0 17.8 7.7 29.9-4.9 3-3.1 6.1-6.5 8.9-10.1 8.6-11 14.3-23.7 3.5-33.8-12.8-11.6-9.3-16.6-5.5-20h0z" class="BH"/><g class="BG"><path d="M383.3 238.4s-3.5 1.5-.8 6.9c0 0-3.6-1.3-1.5 2.7 0 0-5.2-1.4-3.2 5.4 0 0-6.4-2-2.6 3.9 0 0-3.6-3.5-4.7 2.1 0 0-5.1-.8-2.2 4.6 0 0-8.5-.2-5.3 6.9 0 0-5.4-.6-1.8 5.3 0 0-7.8-4.3-2 2.6 0 0-5-.1-3.7 5.3 0 0-2.6-4-4.4 1.1 0 0-11.8 13.2-.3 6.5 0 0-7.1 11.8 4.7.7 0 0 .1 9.5 4.7.1 0 0 6.5 9.9 5.5-1 0 0 7.6 10 4.9-1.9 0 0 12.9 11.7 6.1-1.8 0 0 10.5 7.7 3.6-2.5 0 0 10.7 7.5 3.9-3.1 0 0 12.7 13.2 3.2-3.2 0 0 17.7 6.5 3.7-3.8 0 0 15.3 7.1 2.6-4.6 0 0 9.3 1 2.8-4.3 0 0 18.9.2 1.9-4 0 0 20.5 2.6 1.3-4.9 0 0 11.3 2.1 1.4-4.3 0 0 13.9.1.5-4.1 0 0 11.7-1.6-2-4.1 0 0 13.9-7.1-2.8-5.6 0 0 13.6-5.6-2.1-2.4 0 0 9.3-5.1-1.5-2.2 0 0 5.6-11.2-3.5-2 0 0 1.5-5.8.3-6.2-2.7-.9-3.2 7.2-3.2 7.2s-8.6.5-8.7 2.7c.4 1.3 5.2 2 5.2 2h0z"/><path d="M400.5 254.2c.2-.7-2.1-1.9-5.2-2.7-3.1-.7-5.7-.7-5.9 0s2.1 1.9 5.2 2.7 5.7.8 5.9 0h0zm-1.5 19.6c.2-.5-2.3-2.1-5.7-3.5s-6.3-2-6.6-1.5 2.3 2.1 5.7 3.5 6.4 2 6.6 1.5zm2.4-12.8c.3-.7-1.9-2.1-4.8-3.2-3-1-5.6-1.3-5.9-.6s1.9 2.1 4.8 3.2c3 1.1 5.6 1.4 5.9.6zm-9.2-.1c.3-.7-1.9-2.1-4.8-3.2-3-1-5.6-1.3-5.9-.6s1.9 2.1 4.8 3.2c3 1.1 5.6 1.3 5.9.6zm9.3 4c0-.8-3-1.5-6.8-1.7-3.8-.1-6.9.4-6.9 1.1s3 1.5 6.8 1.7 6.9-.3 6.9-1.1z"/></g><g class="BH"><path d="M398.7 256.2c-.1-.5-2.3-.6-4.9-.3s-4.7 1-4.6 1.4c.1.5 2.3.6 4.9.3s4.7-.9 4.6-1.4zm-3.2 12.8c.4-.5-1.2-2-3.4-3.4s-4.3-2.1-4.6-1.6c-.4.5 1.2 2 3.4 3.4 2.1 1.3 4.2 2 4.6 1.6zm-4.7 5c.5-.4-.1-1.9-1.4-3.5-1.3-1.5-2.7-2.5-3.2-2.2s.1 1.9 1.4 3.5c.1.1.1.2.2.2 1.2 1.5 2.5 2.3 3 2h0zm-25.4 8.7c.5-.3 0-1.6-1-2.9s-2.3-2.1-2.7-1.7 0 1.6 1 2.9c0 .1.1.1.2.2.9 1.2 2.1 1.8 2.5 1.5h0zm21.9-27.5c.5-.4-.1-1.9-1.4-3.4-1.3-1.6-2.7-2.5-3.2-2.2s.1 1.9 1.4 3.4c.1.1.1.2.2.2 1.2 1.5 2.6 2.4 3 2h0zm-22.4 36c.6.1 1.4-1.3 1.8-3.2s.2-3.5-.4-3.6-1.4 1.3-1.8 3.2-.2 3.5.4 3.6zm5.8-21.6c.6.1 1.4-1.3 1.8-3.2s.2-3.5-.4-3.6-1.4 1.3-1.8 3.2c-.4 1.8-.2 3.5.4 3.6zm-14.5 19.6c.2.3 1.8-.4 3.5-1.6 1.7-1.1 2.9-2.3 2.6-2.6-.2-.3-1.8.4-3.5 1.6-1.6 1.1-2.8 2.3-2.6 2.6h0zm19.6.2c.5-.4-.1-1.9-1.4-3.5-1.3-1.5-2.7-2.5-3.2-2.2s.1 1.9 1.4 3.5c1.3 1.5 2.7 2.5 3.2 2.2z"/></g><path d="M352 286.9c.4.5 2-.1 3.7-1.2s2.7-2.5 2.3-2.9-2 .1-3.7 1.2-2.7 2.5-2.3 2.9z" class="BG"/><g class="BH"><use xlink:href="#K"/><path d="M388.6 274.9c-.1-.5-1.5-.7-3.2-.5s-3 .8-3 1.2c.1.5 1.5.7 3.2.5s3-.7 3-1.2zm-5-2.6c.2-.5-.9-1.3-2.6-1.9-1.6-.6-3.1-.8-3.3-.3s1 1.3 2.6 1.9c1.7.6 3.2.7 3.3.3z"/><use xlink:href="#L"/><path d="M357.3 286.2c.4 0 .7-.9.8-2s-.1-2.1-.5-2.1-.7.9-.8 2 .2 2.1.5 2.1h0zm-4.6 5.1c.3.2 1.1-.5 1.7-1.5s.9-2 .5-2.1c-.3-.2-1.1.5-1.7 1.5-.6.9-.8 1.9-.5 2.1zm30.9-9.9c.3-.4-.8-1.4-2.3-2.2s-2.9-1.1-3.2-.7.8 1.4 2.3 2.2c1.6.9 3 1.2 3.2.7z"/><use xlink:href="#M"/><path d="M390.7 262.5c.4-.4-.5-1.7-2-3s-3-2.1-3.3-1.8.5 1.7 2 3 3 2.2 3.3 1.8zm-16.8 19c.5-.1.5-1.7 0-3.6s-1.3-3.3-1.8-3.2-.5 1.7 0 3.6c.4 1.9 1.3 3.3 1.8 3.2h0zm22.1-32.7c-.1-.5-1.5-.7-3.2-.5s-3 .8-3 1.2c.1.5 1.5.7 3.2.5s3-.8 3-1.2z"/></g><g class="BG"><path d="M396.2 245.7c.2-.7-1.8-1.9-4.5-2.5-2.6-.6-5-.5-5.1.2-.2.7 1.8 1.9 4.5 2.5 2.6.7 4.9.6 5.1-.2zm-17.9 26c0-.8-2.3-1.3-5-1.1-2.7.1-4.9.9-4.8 1.7 0 .8 2.3 1.3 5 1.1s4.9-.9 4.8-1.7zm7.6-5.1c.3-.7-1.5-2-4.1-3s-4.9-1.1-5.2-.4 1.5 2 4.1 3 4.9 1.2 5.2.4zM371.1 282c.5-.4-.5-2.3-2.3-4.2s-3.6-3.2-4.1-2.8.5 2.3 2.3 4.2 3.6 3.3 4.1 2.8zm16.7.3c.6-.4-.2-2.6-2-4.9s-3.7-3.8-4.3-3.3c-.6.4.2 2.6 2 4.9s3.7 3.7 4.3 3.3zm-28.3 9.1c.5.2 1.7-1.3 2.5-3.4s1.1-3.9.5-4.1-1.7 1.3-2.5 3.4c-.8 2-1.1 3.9-.5 4.1zm24.6-4.7c.6-.4-.2-2.6-2-4.9s-3.7-3.8-4.3-3.3c-.6.4.2 2.6 2 4.9 1.8 2.2 3.7 3.7 4.3 3.3zm-11.9 5.2c.6-.4-.2-2.6-2-4.9s-3.7-3.8-4.3-3.3.2 2.6 2 4.9 3.6 3.8 4.3 3.3zm9.4-3.9c.2-.5-2.3-2.1-5.7-3.5s-6.3-2-6.6-1.5 2.3 2.1 5.7 3.5 6.3 2 6.6 1.5z"/></g><g class="BH"><path d="M389.1 246.6c-.1-.5-1.5-.7-3.2-.5s-3 .8-3 1.2c.1.5 1.5.7 3.2.5s3.1-.7 3-1.2zm-9.8 19.4c.5-.4-.1-1.9-1.4-3.5s-2.7-2.5-3.2-2.2.1 1.9 1.4 3.5c.1.1.1.2.2.2 1.2 1.5 2.5 2.3 3 2h0zm4.2 1.4c.5 0 .8-1.6.7-3.5s-.7-3.4-1.2-3.4-.8 1.6-.7 3.5c.2 1.9.7 3.4 1.2 3.4zm-5.8 8.9c.5-.4-.1-1.9-1.4-3.5-1.3-1.5-2.7-2.5-3.2-2.2s.1 1.9 1.4 3.5 2.7 2.6 3.2 2.2zm-7.5-4.4c.2-.5-1-1.3-2.6-1.9s-3.1-.8-3.3-.3 1 1.3 2.6 1.9 3.1.8 3.3.3zm-2.7 8.6c.5 0 .8-1.6.7-3.5s-.7-3.4-1.2-3.4-.8 1.6-.7 3.5c.2 1.9.7 3.5 1.2 3.4z"/></g><g class="BV"><path d="M383.9 306.8s-2.5 11.3-6.8 13.5c-4.9 5.9-11.8 9.2-6.8-7.4 0 0-26.3 11.6-4.5-4.8 0 0-40.3 15.2-6-5.8 0 0-41.9 1.4-5.8-9.3 0 0-53.1 4.8-4.4-8.9 0 0-24.3-2.5-2.8-6.1 0 0-46.4-2.8-3.2-9.5 0 0-42.1-9.5-3.4-11.3 0 0-40.1-9.7-1.8-8.5 0 0-45.5-6.4-2.6-9.6 0 0-35.1-6.1.5-10.5 0 0-33.8-15.5 1.7-6.5 0 0-31.5-18 5.3-8.6 0 0-31.9-23.8 5.4-8 0 0-23-22.2 5.5-7.4 0 0-11.3-16.9 4.1-3.3 0 0-21.7-36.8 6.7-3.5 0 0-10.4-24.5 6.7-2.9 0 0-6.8-27.2 4.8-2.8 0 0-10-31.5 7.4-3 0 0-6.8-36.4 8.1-2.5 0 0-1.8-23.6 9-.8 0 0 1-26.7 5.2.1 0 0 15.2-22.2 11.8 1.3 0 0 15.5-10.1.9 11.5 0 0-35.9-6.6-50.8 17.3s-13.8 46.3-3 75.5c10.5 27.7 18.8 21.8 18.8 21.8h0z"/><path d="M379.7 313.6c.5 1.9 5.8 9.1 8.2 8.4s-2.2-9.4-3-10.6c-.7-1.2 7.5 11 9.8 10.3 1.1-.3-1.3-12.5-1.9-14.9-.6-2.5 3.8 8.7 6 8.9s1.4-6.9 1.4-9.8-9.7-9.5-9.7-9.5l-10.8 17.2h0z"/><path d="M398.6 304.2c4.8 13 1.3 11.9-2.5 3.3s-7.6-4.4-3.7 3.1 1.8 10-3.4 1.6-9.2-7.3-5.4 2.9c4.8 12.7-1.3 13-4.9 2.3l.4-5.9 9.5-11.2 10 3.9h0z"/></g><g class="Bj"><path d="M396.9 297c5.2 12.7 2 11.5-2 2.9s-7.1-4.7-3 2.8c4.1 7.4 2.4 9.6-2.9 1.3-5.2-8.3-8.7-7.6-4.6 2.4 5.2 12.4-.1 12.3-4.2 1.9l-.1-5.6 7.6-10 9.2 4.3h0z"/><path d="M386.8 301.7c-1 5.8-3.3 19.7-11.1 20-1.5-1.1-1.7-.6 1-11.6 0 0-29.2 19.3-3.8-4.3 0 0-40.8 13-5-5.2 0 0-35.7 1.4-4.9-8.3 0 0-45.3 4.4-3.7-7.9 0 0-20.7-2.1-2.3-5.4 0 0-39.5-2.3-2.7-8.5 0 0-35.8-8.4-2.9-10 0 0-34.2-8.5-1.5-7.6 0 0-38.8-5.5-2.1-8.6 0 0-29.9-5.3.5-9.3 0 0-28.7-13.7 1.5-5.8 0 0-26.8-15.9 4.6-7.7 0 0-27.1-21.1 4.6-7.2 0 0-19.5-19.7 4.7-6.6 0 0-9.6-15.1 3.5-2.9 0 0-18.4-32.8 5.7-3.1 0 0-8.7-21.8 5.8-2.6 0 0-5.7-24.2 4.1-2.5 0 0-8.4-28.1 6.3-2.7 0 0-5.6-32.4 6.9-2.2 0 0-1.5-21 7.6-.8 0 0 1-23.8 4.4.1 0 0 13-19.8 10.1 1.1 0 0 16.9-12.2-2.1 10.3 0 0-27.8-5.8-40.6 15.6-12.9 21.4-22.7 47.1-2.8 67.3 14.2 14.4 15.4 9.2 14.2 16.4h0z"/></g><g class="BG"><path d="M352.8 293.7c.2 1.1 5 1.3 10.6.4s10-2.6 9.8-3.7-5-1.3-10.6-.4c-5.7.9-10 2.5-9.8 3.7zm8.2 10.7c.7 1 5.1-.6 9.9-3.4 4.8-2.9 8.2-6 7.5-6.9-.7-1-5.1.6-9.9 3.4s-8.2 5.9-7.5 6.9h0zm12.9 9.6c1 .7 4.6-2.1 8.2-6.2 3.5-4.2 5.6-8.1 4.7-8.9s-4.6 2.1-8.2 6.2-5.7 8.2-4.7 8.9h0zm-26.5-37.9c.2 1.1 5 1.3 10.6.5 5.6-.9 10-2.5 9.8-3.6s-5-1.3-10.6-.5c-5.6.9-10 2.5-9.8 3.6zm-6.8-32.8c-.1 1.1 4.4 2.5 10.1 3.1s10.4.1 10.5-1.1c.1-1.1-4.4-2.5-10.1-3.1-5.7-.5-10.4 0-10.5 1.1zm6-20.3c-.1 1.1 4.4 2.5 10.1 3.1s10.4.1 10.5-1.1c.1-1.1-4.4-2.5-10.1-3.1s-10.4-.1-10.5 1.1zm12.3-19.8c-.9.8 1.4 4.6 5.3 8.7 3.8 4 7.7 6.6 8.6 5.9.9-.8-1.4-4.6-5.3-8.7-3.9-4-7.7-6.7-8.6-5.9zm18.6-8.1c-.9.3-.3 3.7 1.2 7.6s3.6 6.7 4.5 6.4.3-3.7-1.2-7.6-3.6-6.7-4.5-6.4zm18-8.6c-.9.1-1.4 3.5-1 7.6s1.5 7.4 2.5 7.3 1.4-3.5 1-7.6-1.5-7.4-2.5-7.3zm17.2 2.3c-.9-.4-3.1 2.3-5 6s-2.7 7-1.9 7.4c.9.4 3.1-2.3 5-6s2.8-7 1.9-7.4z"/></g><path d="M389.4 301.2c-1.2 1.6-13.4 15.5-8.4-.7 0 0-24.6 16.3-3.2-3.6 0 0-34.4 10.9-4.3-4.4 0 0-30.1 1.2-4.1-7 0 0-38.2 3.7-3.1-6.6 0 0-17.4-1.8-2-4.6 0 0-33.3-2-2.3-7.2 0 0-30.2-7-2.4-8.5 0 0-28.8-7.2-1.2-6.4 0 0-32.7-4.6-1.8-7.2 0 0-25.2-4.5.4-7.9 0 0-24.2-11.5 1.3-4.9 0 0-22.6-13.4 3.9-6.5 0 0-22.8-17.8 3.9-6 0 0-16.5-16.6 4-5.6 0 0-8.1-12.7 3-2.5 0 0-15.5-27.6 4.8-2.6 0 0-7.4-18.4 4.9-2.2 0 0-4.8-20.4 3.5-2.1 0 0-7.1-23.6 5.3-2.3 0 0-4.7-27.4 5.8-1.9 0 0-1.2-17.7 6.4-.6 0 0 .8-20.1 3.7.1 0 0 11-16.7 8.5.9 0 0 14.2-10.3-1.7 8.6 0 0-23.4-4.9-34.2 13.1a160.66 160.66 0 0 0-7.8 14.3c-7.2 15.3-10.4 31.8 5.4 41.2 17.9 11.1 15.3 18 11.7 23.1h0z" class="BH"/><path d="M388.5 275.2s3.7-2.6-1-8.4c0 0 4.7.6 1-3.6 0 0 6.6.4 2.2-7.2 0 0 8.2.8 2-5.3 0 0 5.3 3.2 5-3.7 0 0 6.3-.4 1.3-6 0 0 10.1-1.8 4.3-9.6 0 0 6.5-.6.6-6.8 0 0 10.5 3.3 1.6-3.6 0 0 5.9-1.1 2.9-7.3 0 0 4.2 4.2 4.9-2.4 0 0 10.3-18.6-1.5-7.9 0 0 5.1-15.8-5.8.3 0 0-2.8-11.3-5.6 1.1 0 0-10.5-10.3-6.3 2.5 0 0-11.9-10.1-5.3 3.5 0 0-18.6-10.8-6.8 3.6 0 0-14.6-6.6-3.6 3.9 0 0-14.9-6.3-3.8 4.7 0 0-18.8-12.7-2.9 4.6 0 0-22.9-3.4-3.4 5.5 0 0-20.2-4.8-1.9 6.1 0 0-11.4 1.1-2.2 5.9 0 0-22.5 4.4-1.1 5.2 0 0-25.1 1.9-.1 6.2 0 0-14.1.3-.5 5.4 0 0-16.6 3.2.6 5 0 0-13.5 4.7 3.6 4.5 0 0-14.6 12 4.9 6 0 0-14.6 10.1 3.2 2.4 0 0-9.7 8.4 2.4 2.3 0 0-3.5 14.8 4.7 1.6 0 0-.2 7.4 1.4 7.5 3.5.4 1.7-9.4 1.7-9.4s10.1-2.7 9.6-5.3c-.2-1.6-6.1-1.3-6.1-1.3h0z" class="BG"/><g class="BH"><path d="M383.6 252.9c.2.6 2 .5 4-.2s3.4-1.6 3.2-2.2-2-.5-4 .2c-2 .6-3.4 1.6-3.2 2.2zm-7.4 1.2c-.2-.6-2.9-.2-5.9.8s-5.3 2.3-5.1 2.9 2.9.2 5.9-.8c3-1.1 5.3-2.4 5.1-2.9zm.2-8.3c.3-.7-2-2.1-5-3.2s-5.7-1.5-6-.8 2 2.1 5 3.2 5.7 1.5 6 .8zm-4.2-7.5c1.9 1.6 3.9 2.4 4.4 1.8.5-.5-.7-2.2-2.6-3.8-.1-.1-.2-.2-.3-.2-1.8-1.4-3.6-2.1-4.1-1.6-.5.6.7 2.3 2.6 3.8h0zm23.3-30.7c-.8 0-1.3 1.9-1.3 4.3s.7 4.3 1.5 4.3 1.3-1.9 1.3-4.3-.7-4.3-1.5-4.3zm10.9.3c-.4-.3-2 .9-3.7 2.7s-2.8 3.5-2.4 3.8 2-.9 3.7-2.7 2.8-3.5 2.4-3.8zm-18.9 6.4c-1.9-1.6-3.9-2.4-4.4-1.8-.5.5.7 2.2 2.6 3.8s3.9 2.4 4.4 1.8-.7-2.2-2.6-3.8zm-9.2 57c-2 .7-3.4 1.6-3.2 2.2s2 .5 4-.2 3.4-1.6 3.2-2.2c-.3-.5-2.1-.5-4 .2h0zm-2.3-38.6c2-.7 3.4-1.6 3.2-2.2s-2-.5-4 .2-3.4 1.6-3.2 2.2c.2.5 2 .5 4-.2h0zm30-20.9c-.4.1-.6 1.2-.4 2.6s.8 2.5 1.2 2.4.6-1.2.4-2.6-.8-2.5-1.2-2.4zm4-7.2c-.4-.1-1.1.9-1.6 2.2-.5 1.4-.5 2.5 0 2.7.4.1 1.1-.9 1.6-2.2.5-1.4.5-2.6 0-2.7zM379.3 226c2 .6 3.8.6 4 0s-1.3-1.5-3.3-2.1-3.8-.6-4 0 1.3 1.5 3.3 2.1h0z"/><path d="M383.8 225.7c.6-.2.5-2.1-.2-4.4s-1.8-3.9-2.4-3.8-.5 2.1.2 4.4c.7 2.2 1.8 3.9 2.4 3.8zm-10.9 22.5c-.3.5 1.1 1.9 3.3 3.1 2.1 1.2 4.1 1.8 4.5 1.3.3-.5-1.1-1.9-3.3-3.1s-4.2-1.8-4.5-1.3zm4.8 15.4c-.2-.6-2-.5-4 .2s-3.4 1.6-3.2 2.2 2 .5 4-.2 3.4-1.7 3.2-2.2z"/></g><g class="BG"><path d="M377.5 260.9c0-.9-3.1-1.8-6.9-1.9s-7 .5-7 1.5 3.1 1.8 6.9 1.9c3.9.1 7-.5 7-1.5zm-1.6-21.2c.1-.7-3.3-1.9-7.7-2.8-4.4-.8-8.1-.9-8.3-.2-.1.7 3.3 1.9 7.8 2.8 4.3.9 8 .9 8.2.2h0zm-1.5 14.8c.1-.9-2.9-2.1-6.7-2.6s-7-.2-7.1.7 2.9 2.1 6.7 2.6 7 .2 7.1-.7zm4.4-4.7c-3.8-.5-7-.2-7.1.7s2.9 2.1 6.7 2.6 7 .2 7.1-.7-2.9-2.1-6.7-2.6h0zm-10.8-1.5c4.6-.8 8.1-2.1 7.9-3s-4-1.1-8.6-.3-8.1 2.1-7.9 3c.2 1 4 1.1 8.6.3h0zm44.1-38.7c-.6-.5-2.4.6-4 2.4s-2.5 3.6-1.9 4.1 2.4-.6 4-2.4 2.5-3.6 1.9-4.1zm-34.9 58.5c-3.3-.1-6 .6-6.1 1.5 0 .9 2.7 1.8 6 1.9s6-.6 6.1-1.5c0-.9-2.7-1.8-6-1.9zm13.2-37c-3.2.9-5.6 2.3-5.3 3.2s3.1.9 6.3.1c3.2-.9 5.6-2.3 5.3-3.2-.3-1-3.1-1-6.3-.1zm-6.6 10.2c-3.3-.5-6.1-.1-6.2.8s2.4 2.1 5.7 2.5c3.3.5 6.1.1 6.2-.8s-2.4-2-5.7-2.5zm12.7-18.8c-2.7-1.9-5.2-3-5.7-2.4s1.3 2.6 4 4.5 5.2 3 5.7 2.4c.4-.6-1.4-2.6-4-4.5z"/><use xlink:href="#N"/><path d="M402 206.1c-.7-.1-1.6 2-2 4.7s-.2 5 .5 5.1 1.6-2 2-4.7.2-5-.5-5.1zm-24.3 17c2.7 2.3 5.5 3.6 6.1 2.9s-1-3.1-3.7-5.3c-2.7-2.3-5.4-3.6-6.1-2.9s1 3 3.7 5.3zm12.7-9.2c2.7 2.3 5.5 3.6 6.1 2.9s-1-3.1-3.7-5.3c-2.7-2.3-5.5-3.6-6.1-2.9-.7.6 1 3 3.7 5.3zm-6 4.4c4.4.8 8.1.9 8.3.2.1-.7-3.3-1.9-7.7-2.8-4.4-.8-8.1-.9-8.3-.2-.2.8 3.3 2 7.7 2.8z"/></g><g class="BH"><path d="M401.1 219.2c-.1-.1-.2-.1-.2-.2-1.5-1.1-3.1-1.7-3.5-1.2-.5.5.5 2 2.1 3.2 1.6 1.3 3.3 1.9 3.8 1.4.3-.4-.6-1.9-2.2-3.2zm-19.5 40.7c1.9 1.5 3.9 2.4 4.4 1.8s-.7-2.2-2.6-3.8c-.1-.1-.2-.2-.3-.2-1.8-1.4-3.6-2.1-4.1-1.6s.7 2.2 2.6 3.8h0zm13.1-25c-.8 0-1.3 1.9-1.3 4.3s.7 4.3 1.5 4.3 1.3-1.9 1.3-4.3c-.1-2.4-.7-4.3-1.5-4.3zm-8.6 1.2c.1-.6-1.5-1.3-3.6-1.7s-3.9-.1-4 .4c-.1.6 1.5 1.3 3.6 1.7s3.9.2 4-.4zm5.6-7c.6-.3.1-2.2-1-4.3s-2.5-3.6-3-3.3c-.6.2-.1 2.2 1 4.3 1 2 2.4 3.5 3 3.3h0zm-9.2 35.5c-2 .7-3.4 1.6-3.2 2.2s2 .5 4-.2c2-.6 3.4-1.6 3.2-2.2-.3-.5-2-.4-4 .2zm7.5-21.5c-.1-.1-.2-.2-.3-.2-1.8-1.4-3.6-2.1-4.1-1.6s.7 2.2 2.6 3.8 3.9 2.4 4.4 1.8-.7-2.2-2.6-3.8zm-7.4 5.7c.6-.2.5-2.1-.2-4.4s-1.8-3.9-2.4-3.8-.5 2.1.2 4.4 1.8 4 2.4 3.8zm4.5-16.5c1.9 1.6 3.9 2.4 4.4 1.8s-.7-2.2-2.6-3.8-3.9-2.4-4.4-1.8.7 2.3 2.6 3.8zm11.6-.8c-2.1-.4-3.9-.1-4 .4-.1.6 1.5 1.3 3.6 1.7s3.9.1 4-.4-1.6-1.3-3.6-1.7h0zm-.7-2.3c.6-.2.5-2.1-.2-4.4-.7-2.2-1.8-3.9-2.4-3.8-.6.2-.5 2.1.2 4.4.7 2.2 1.7 3.9 2.4 3.8h0z"/></g><path d="M429.9 195.2l7.5-2.1c.4-.1.9.1 1 .6h0c.1.4-.1.9-.6 1l-7.5 2.1c-.4.1-.9-.1-1-.6h0a.89.89 0 0 1 .6-1z" class="BL"/><path fill="#cfd8ff" d="M432.4 194.7l4.8-1.3c.3-.1.6.1.7.4h0c.1.3-.1.6-.4.7l-4.8 1.3c-.3.1-.6-.1-.7-.4h0c0-.4.1-.7.4-.7z"/><circle cx="1520.7" cy="176.2" r="2.2" class="Bd"/></g></svg>